<svg xmlns="http://www.w3.org/2000/svg" xmlns:xlink="http://www.w3.org/1999/xlink" width="46.754" height="40.457" viewBox="0 0 46.754 40.457">
  <defs>
    <clipPath id="clip-path">
      <rect id="Rectangle_45" data-name="Rectangle 45" width="46.754" height="40.457" fill="#fff"/>
    </clipPath>
  </defs>
  <g id="Group_41" data-name="Group 41" clip-path="url(#clip-path)">
    <path id="Path_32" data-name="Path 32" d="M0,28.437a1.056,1.056,0,0,1,1.013-.419q6.391.007,12.782,0h.523l-.395-2.3h-.448c-3.409,0-6.817.005-10.226-.01a1.278,1.278,0,0,1-.816-.241.774.774,0,0,1-.1-.737.946.946,0,0,1,.693-.378c1.109-.039,2.221-.017,3.332-.017h7.485c.04-.763.079-1.5.121-2.286H6.77c-.615,0-.925-.243-.926-.72,0-.4.364-.661.948-.661q3.47,0,6.939,0h.422c2.038-7.4,6.789-11.749,14.388-12.982V3.624c-.84,0-1.659.023-2.476-.006a1.75,1.75,0,0,1-1.747-1.781,1.659,1.659,0,0,1,1.7-1.749c.228.01.456,0,.685,0a.565.565,0,0,1,.6.621.668.668,0,0,1-.608.653c-.167.008-.337-.015-.5,0-.257.031-.446.127-.453.445s.164.394.416.417c.106.01.213.009.319.009H34.6c.046,0,.091,0,.137,0,.3.008.581-.073.586-.415s-.273-.426-.575-.426q-1.529,0-3.059,0c-.715,0-1.43.008-2.146,0-.522-.008-.9-.321-.871-.7.027-.406.371-.684.89-.686,1.735-.006,3.47-.03,5.2.006a1.8,1.8,0,0,1,1.843,2.423,1.881,1.881,0,0,1-1.76,1.186c-.758.007-1.515,0-2.3,0V7.78c.7.166,1.405.306,2.094.507s1.387.463,2.076.706c.266.094.462.155.641-.19a15.712,15.712,0,0,1,.886-1.375c-.442-.411-.879-.779-1.266-1.193a1.572,1.572,0,0,1,.052-1.681,1.526,1.526,0,0,1,1.575-.665,5.329,5.329,0,0,1,1.869,1.055c1.047.664,2.061,1.385,3.059,2.122a1.558,1.558,0,0,1,.581,1.993A1.61,1.61,0,0,1,42.343,10a3.3,3.3,0,0,1-1.065-.588c-.241-.17-.381-.168-.533.083a9.8,9.8,0,0,1-.652,1c-.187.237-.059.353.1.485.572.483,1.186.924,1.712,1.452a16.616,16.616,0,0,1,2.5,3.2,15.719,15.719,0,0,1,1.85,4.513c.174.746.275,1.509.414,2.264a.778.778,0,0,0,.086.182v3.008c-.091.36-.2.717-.268,1.082-.1.573-.352.809-.844.737a.8.8,0,0,1-.533-.912c.068-.973.187-1.947.173-2.919a14.327,14.327,0,0,0-2.953-8.478A14.744,14.744,0,0,0,38.5,11.516,15.021,15.021,0,0,0,33.32,9.377a15.792,15.792,0,0,0-4.861-.228,13.9,13.9,0,0,0-7.37,3.043,15.568,15.568,0,0,0-5.024,7.075,14.411,14.411,0,0,0-.791,6.117A13.654,13.654,0,0,0,18.025,32.6a23.912,23.912,0,0,0,2.2,2.552A12.558,12.558,0,0,0,24.489,37.9a18.443,18.443,0,0,0,3.36.99,12.572,12.572,0,0,0,3.354.15,16.657,16.657,0,0,0,5.14-1.259,14.833,14.833,0,0,0,8.034-8.437c.185-.482.524-.683.958-.521a.709.709,0,0,1,.34.957,16.52,16.52,0,0,1-8.064,8.949,13.357,13.357,0,0,1-4.564,1.458,37.9,37.9,0,0,1-3.991.254c-7.381.025-14.762.016-22.143.009a1.28,1.28,0,0,1-.745-.173.787.787,0,0,1-.278-.659c.068-.215.355-.391.585-.515a1.231,1.231,0,0,1,.539-.035l16.436,0,.152.015-.1-.087a16.27,16.27,0,0,1-3.425-2.118.935.935,0,0,0-.559-.105q-7.782-.008-15.565-.006a1.47,1.47,0,0,1-.712-.07.832.832,0,0,1-.375-.6.936.936,0,0,1,.408-.606,1.23,1.23,0,0,1,.654-.1c4.793,0,9.585,0,14.449,0A16.835,16.835,0,0,1,17.15,33.82a1.588,1.588,0,0,0-1.592-.752c-4.808.035-9.616.019-14.424.018-.562,0-.852-.227-.857-.665-.005-.466.288-.712.874-.712q7.144,0,14.287,0h.294c-.323-.748-.621-1.471-.956-2.176-.041-.086-.279-.111-.426-.111q-6.733-.008-13.465,0A.937.937,0,0,1,0,28.984Zm29.974-20.8h1.157V3.663H29.974ZM38.265,5.2l-.167.248c1.435,1.2,3.048,2.16,4.568,3.263.233-.421.227-.421-.145-.679-1.112-.772-2.216-1.555-3.333-2.32-.289-.2-.614-.343-.922-.512m.148,4.548.091.168c.146-.056.352-.069.428-.176.309-.43.578-.888.871-1.349l-.385-.206L38.413,9.747" transform="translate(0 0)" fill="#fff"/>
    <path id="Path_33" data-name="Path 33" d="M167.95,111.213l2.643-.923,2.2-.774c.055-.019.115-.026.171-.043.534-.165.986-.018,1.105.36.13.411-.1.768-.636.952q-2.541.875-5.086,1.739c-.432.146-.839.439-1.34.115a1.093,1.093,0,0,1-.549-1.319c.516-1.621,1.048-3.236,1.568-4.856.532-1.659,1.056-3.32,1.584-4.979a11.069,11.069,0,0,0-11.7,3.929,11.229,11.229,0,0,0,1.029,14.979,11.277,11.277,0,0,0,18.767-11.072c-.424.147-.844.305-1.272.436-.649.2-1.151-.138-1.063-.713.023-.149.106-.37.217-.412a13.091,13.091,0,0,1,2.207-.736c.707-.131,1,.2,1.231.923a10.922,10.922,0,0,1,.525,3.821,12.653,12.653,0,0,1-2.711,7.486,13.013,13.013,0,0,1-5.073,3.881,10.489,10.489,0,0,1-3.583.914c-.6.038-1.2.092-1.8.081a12.039,12.039,0,0,1-4.416-.992,12.693,12.693,0,0,1-4.711-3.371,12.4,12.4,0,0,1-2.808-5.55,12.935,12.935,0,0,1-.244-3.986,12.281,12.281,0,0,1,1.061-3.931,12.98,12.98,0,0,1,3.291-4.441,12.293,12.293,0,0,1,4.736-2.583,10.436,10.436,0,0,1,3.888-.468,24.053,24.053,0,0,1,3.032.458,1.067,1.067,0,0,1,.8,1.547q-1.144,3.513-2.282,7.029c-.257.8-.5,1.6-.78,2.5" transform="translate(-136.554 -88.274)" fill="#fff"/>
    <path id="Path_34" data-name="Path 34" d="M205.48,341.593l.1.087-.152-.015.048-.072" transform="translate(-181.983 -302.602)" fill="#fff"/>
  </g>
</svg>
