<svg xmlns="http://www.w3.org/2000/svg" xmlns:xlink="http://www.w3.org/1999/xlink" width="15.64" height="15.243" viewBox="0 0 15.64 15.243">
  <defs>
    <clipPath id="clip-path">
      <rect id="Rectangle_47" data-name="Rectangle 47" width="15.64" height="15.243" fill="#fff"/>
    </clipPath>
  </defs>
  <g id="Group_55" data-name="Group 55" clip-path="url(#clip-path)">
    <path id="Path_42" data-name="Path 42" d="M5.6,15.244a1.537,1.537,0,0,1-1.145-.619c-.3-.359-.593-.725-.887-1.089-.326-.4-.649-.811-.977-1.213-.285-.35-.577-.695-.862-1.044s-.566-.7-.848-1.053c-.2-.249-.414-.488-.6-.749A1.576,1.576,0,0,1,.35,7.582a1.511,1.511,0,0,1,1.188-.625A1.516,1.516,0,0,1,2.626,7.3c.368.322.726.654,1.089.981L5.062,9.492c.171.154.343.308.51.467a.389.389,0,0,0,.585-.009Q6.938,9.077,7.715,8.2,8.247,7.6,8.777,7l1.337-1.51,1.348-1.523L12.8,2.455q.674-.761,1.347-1.523c.208-.237.412-.478.615-.72a.541.541,0,0,1,.6-.181.436.436,0,0,1,.273.481,1.712,1.712,0,0,1-.238.462q-.9,1.465-1.815,2.925l-1.54,2.479q-.9,1.455-1.8,2.911Q9.482,10.5,8.728,11.71c-.567.912-1.123,1.832-1.7,2.736a1.634,1.634,0,0,1-1.422.8" transform="translate(0 0)" fill="#fff"/>
  </g>
</svg>
