<?xml version="1.0" encoding="utf-8"?>
<!-- Generator: Adobe Illustrator 27.7.0, SVG Export Plug-In . SVG Version: 6.00 Build 0)  -->
<svg version="1.1" id="Ebene_1" xmlns="http://www.w3.org/2000/svg" xmlns:xlink="http://www.w3.org/1999/xlink" x="0px" y="0px"
	 viewBox="0 0 35 35" style="enable-background:new 0 0 35 35;" xml:space="preserve">
<style type="text/css">
	.st0{fill:#065D4E;}
</style>
<g id="Gruppe_13" transform="translate(-2 -2)">
	<g id="Schloss" transform="translate(1008.1 45.352)">
		<path id="Pfad_9" class="st0" d="M-979.6-28.5c0,0.3-0.1,0.6-0.1,0.9c0,0.2,0,0.4-0.1,0.6c0,0.3-0.1,0.6-0.1,0.9
			c-0.1,0.3-0.1,0.6-0.2,0.9c-0.1,0.4-0.2,0.9-0.3,1.3c-0.2,0.5-0.4,1.1-0.6,1.6c-0.1,0.3-0.2,0.6-0.4,0.8s-0.3,0.5-0.4,0.8
			s-0.3,0.6-0.5,0.8c-0.2,0.4-0.5,0.7-0.8,1.1c-0.4,0.5-0.8,0.9-1.2,1.3c-0.6,0.6-1.3,1.1-2,1.5c-0.4,0.3-0.8,0.5-1.3,0.7
			c0,0-0.1,0-0.2,0c-0.2-0.1-0.3-0.2-0.5-0.2c-0.2-0.1-0.4-0.2-0.6-0.4s-0.4-0.2-0.6-0.4c-0.3-0.2-0.6-0.4-0.8-0.7
			c-0.6-0.5-1.1-1-1.6-1.6c-0.2-0.3-0.5-0.6-0.7-0.9c-0.2-0.3-0.4-0.6-0.5-0.8c-0.1-0.2-0.3-0.4-0.4-0.7c-0.2-0.4-0.4-0.8-0.6-1.2
			c-0.1-0.3-0.3-0.7-0.4-1c-0.1-0.4-0.3-0.8-0.4-1.2c-0.1-0.3-0.2-0.6-0.2-0.9c-0.1-0.4-0.2-0.8-0.3-1.2c-0.1-0.4-0.1-0.8-0.2-1.2
			c0-0.3-0.1-0.7-0.1-1c0-0.4,0-0.8-0.1-1.2c0-0.7,0-1.5,0-2.2c0-0.1,0-0.3,0-0.4v-0.8h0.4c0.4,0,0.7,0,1.1,0c0.3,0,0.7,0,1-0.1
			c0.3,0,0.5,0,0.8-0.1c0.4-0.1,0.9-0.2,1.3-0.3c0.8-0.2,1.7-0.5,2.4-0.9c0.3-0.2,0.6-0.4,0.9-0.6c0,0,0.1,0,0.1,0
			c0.3,0.2,0.6,0.4,0.9,0.6c0.2,0.1,0.5,0.2,0.8,0.3c0.3,0.1,0.5,0.2,0.8,0.3c0.5,0.2,1.1,0.3,1.6,0.4c0.4,0.1,0.8,0.1,1.2,0.2
			c0.2,0,0.4,0,0.6,0.1c0,0,0.1,0,0.1,0s0.1,0,0.1,0l0.2,0l0.3,0c0,0,0,0,0.1,0h1.2c0,0,0,0,0,0c0,0.3,0,0.6,0,0.9
			c0,0.4,0,0.8,0,1.2c0,0.3,0,0.5,0,0.8c0,0.3,0,0.6,0,0.9c0,0.1,0,0.2,0,0.3c0,0,0,0.1,0,0.1c0,0,0,0.1,0,0.1s0,0.1,0,0.2
			c0,0,0,0.1,0,0.1C-979.5-28.6-979.5-28.5-979.6-28.5z M-990.8-22.1c0,0.2,0.2,0.2,0.3,0.2c2,0,4,0,6,0c0.2,0,0.3-0.1,0.4-0.3
			c0,0,0,0,0,0c0-1.4,0-2.9,0-4.3c0-0.2-0.1-0.4-0.3-0.4c0,0,0,0-0.1,0c-2,0-4,0-6,0c-0.2,0-0.4,0.1-0.4,0.3c0,0,0,0.1,0,0.1
			c0,1.4,0,2.9,0,4.3C-990.8-22.2-990.8-22.2-990.8-22.1C-990.8-22.1-990.8-22.1-990.8-22.1C-990.8-22.1-990.8-22.1-990.8-22.1
			L-990.8-22.1z M-987.4-30.7c-0.3,0-0.5,0.1-0.8,0.1c-0.9,0.2-1.7,0.9-2.1,1.8c-0.1,0.3-0.2,0.5-0.2,0.8c0,0.2,0,0.4,0,0.5
			c0,0.2,0.2,0.3,0.4,0.3s0.3-0.2,0.3-0.4c0-0.3,0-0.5,0.1-0.8c0.1-0.3,0.3-0.6,0.5-0.8c0.5-0.6,1.3-0.9,2-0.8
			c0.3,0,0.6,0.1,0.9,0.3c0.4,0.2,0.7,0.4,0.9,0.8c0.2,0.2,0.3,0.5,0.4,0.7c0,0.2,0.1,0.5,0.1,0.7c0,0.2,0.2,0.3,0.4,0.3
			c0.2,0,0.3-0.2,0.3-0.3c0,0,0,0,0,0c0-0.1,0-0.3,0-0.4c0-0.2-0.1-0.5-0.2-0.7c-0.1-0.3-0.3-0.6-0.5-0.9c-0.4-0.4-0.9-0.8-1.4-1
			C-986.8-30.7-987.1-30.7-987.4-30.7L-987.4-30.7z"/>
		<path id="Pfad_10" class="st0" d="M-980.7-33.7l-0.2,0C-980.8-33.7-980.8-33.7-980.7-33.7z"/>
		<path id="Pfad_11" class="st0" d="M-979.5-28.7c0,0,0-0.1,0-0.1C-979.5-28.8-979.5-28.8-979.5-28.7z"/>
		<path id="Pfad_12" class="st0" d="M-979.5-28.5C-979.5-28.5-979.5-28.6-979.5-28.5C-979.5-28.6-979.5-28.5-979.5-28.5z"/>
		<path id="Pfad_13" class="st0" d="M-981-33.7L-981-33.7L-981-33.7z"/>
		<path id="Pfad_14" class="st0" d="M-979.5-29C-979.5-29-979.5-29.1-979.5-29C-979.5-29.1-979.5-29-979.5-29z"/>
		<path id="Pfad_15" class="st0" d="M-980.4-33.7L-980.4-33.7C-980.4-33.7-980.4-33.7-980.4-33.7z"/>
		<path id="Pfad_16" class="st0" d="M-990.8-22.1C-990.8-22.1-990.8-22.1-990.8-22.1L-990.8-22.1C-990.8-22.1-990.8-22.1-990.8-22.1
			z"/>
		<path id="Pfad_17" class="st0" d="M-987.7-24c0-0.2,0-0.3,0-0.5c0,0,0-0.1,0-0.1c-0.2-0.2-0.2-0.5-0.1-0.7
			c0.1-0.1,0.2-0.1,0.3-0.2c0.3-0.1,0.5,0.1,0.6,0.3c0.1,0.2,0,0.4-0.1,0.6c0,0,0,0.1,0,0.1c0,0.3,0,0.6,0,0.9
			c0,0.2-0.1,0.3-0.3,0.3c-0.2,0-0.3-0.1-0.3-0.3C-987.7-23.7-987.7-23.9-987.7-24L-987.7-24z"/>
	</g>
</g>
</svg>
