<?xml version="1.0" encoding="utf-8"?>
<!-- Generator: Adobe Illustrator 27.8.0, SVG Export Plug-In . SVG Version: 6.00 Build 0)  -->
<svg version="1.0" id="Layer_1" xmlns="http://www.w3.org/2000/svg" xmlns:xlink="http://www.w3.org/1999/xlink" x="0px" y="0px"
	 viewBox="0 0 16 20" style="enable-background:new 0 0 16 20;" xml:space="preserve">
<style type="text/css">
	.st0{fill:#085D4D;}
</style>
<g id="Schloss" transform="translate(-246.9 -38.648)">
	<path id="Pfad_9" class="st0" d="M288.7-16.1c-0.1,0.7-0.2,1.4-0.3,2.1c-0.1,0.5-0.2,1-0.2,1.5c-0.1,0.7-0.3,1.4-0.4,2.1
		c-0.2,0.7-0.3,1.4-0.5,2.1c-0.3,1-0.6,2-1,3c-0.5,1.3-1.1,2.5-1.7,3.8c-0.3,0.7-0.7,1.4-1.1,2c-0.4,0.7-0.8,1.3-1.2,1.9
		c-0.4,0.6-0.9,1.3-1.4,1.9c-0.7,0.9-1.5,1.7-2.3,2.5c-1.1,1.1-2.3,2.2-3.7,3.2c-1.8,1.4-3.8,2.6-6,3.6c-1.3,0.6-2.6,1.2-3.9,1.7
		c-0.1,0.1-0.3,0.1-0.5,0c-0.5-0.2-1-0.4-1.4-0.6c-0.6-0.3-1.3-0.6-1.9-0.9c-0.6-0.3-1.2-0.6-1.8-0.9c-0.9-0.5-1.7-1-2.6-1.6
		c-1.8-1.1-3.4-2.4-4.9-3.8c-0.8-0.7-1.4-1.4-2.1-2.2c-0.6-0.6-1.1-1.3-1.7-2c-0.4-0.5-0.8-1-1.1-1.6c-0.6-0.9-1.2-1.8-1.7-2.8
		c-0.5-0.8-0.8-1.6-1.2-2.5c-0.4-0.9-0.8-1.9-1.1-2.8c-0.3-0.7-0.5-1.4-0.7-2.2c-0.3-1-0.6-2-0.8-2.9c-0.2-0.9-0.3-1.9-0.5-2.8
		c-0.1-0.8-0.3-1.6-0.3-2.4c-0.1-0.9-0.2-1.8-0.2-2.8c-0.1-1.8-0.1-3.5-0.1-5.3c0-0.3,0-0.6,0-1v-1.9h1.4c1.1,0,2.3,0,3.4,0
		c1,0,2-0.1,3-0.2c0.8-0.1,1.6-0.1,2.3-0.2c1.3-0.2,2.6-0.4,3.9-0.6c2.6-0.5,5.1-1.2,7.5-2.2c1-0.4,1.9-0.9,2.9-1.4
		c0.1-0.1,0.3-0.1,0.4,0c1,0.5,1.9,1,2.9,1.4c0.7,0.3,1.5,0.6,2.3,0.8c0.8,0.3,1.5,0.5,2.3,0.7c1.6,0.4,3.2,0.8,4.9,1
		c1.2,0.2,2.4,0.3,3.6,0.4c0.6,0.1,1.2,0.1,1.8,0.1c0.1,0,0.2,0,0.3,0c0.1,0,0.3,0,0.4,0l0.7,0l1.1,0c0.1,0,0.1,0,0.2,0h3.8
		c0,0,0,0,0,0c0,0.7,0,1.4,0.1,2.2c0,1,0,1.9,0,2.9c0,0.6,0,1.3,0,1.9c0,0.7-0.1,1.4-0.1,2.1c0,0.3,0,0.5-0.1,0.8c0,0.1,0,0.1,0,0.2
		c0,0.1,0,0.2,0,0.3c0,0.1,0,0.2,0,0.4c0,0.1,0,0.2,0,0.3C288.8-16.3,288.7-16.2,288.7-16.1z M254.4-1c0.1,0.4,0.6,0.6,1,0.5
		c6.1,0,12.2,0,18.3,0c0.6,0,1.1-0.3,1.1-0.8c0,0,0-0.1,0-0.1c0-3.4,0-6.8,0-10.3c0.1-0.4-0.4-0.9-0.9-0.9c-0.1,0-0.1,0-0.2,0
		c-6.1,0-12.2,0-18.2,0c-0.6-0.1-1.1,0.2-1.1,0.7c0,0.1,0,0.1,0,0.2c0,3.4,0,6.9,0,10.3C254.4-1.3,254.4-1.2,254.4-1
		C254.4-1.1,254.4-1.1,254.4-1C254.4-1.1,254.4-1,254.4-1L254.4-1z M264.7-21.4c-0.8,0-1.7,0.1-2.5,0.3c-2.8,0.6-5.2,2.1-6.4,4.2
		c-0.3,0.6-0.6,1.2-0.7,1.9c-0.1,0.4-0.1,0.8-0.1,1.3c0,0.5,0.6,0.8,1.2,0.8c0.6,0,1.1-0.4,1-0.9c0-0.6,0.1-1.3,0.4-1.9
		c0.3-0.7,0.8-1.4,1.5-1.9c1.6-1.4,3.9-2.1,6.3-1.9c0.9,0.1,1.8,0.3,2.6,0.6c1.1,0.4,2,1,2.8,1.8c0.5,0.5,0.9,1.1,1.1,1.8
		c0.2,0.6,0.2,1.1,0.3,1.7c0.1,0.4,0.6,0.8,1.2,0.8c0.6,0,1-0.4,1-0.8c0,0,0,0,0,0c0-0.3,0-0.7-0.1-1c-0.1-0.6-0.3-1.1-0.5-1.7
		c-0.4-0.8-0.9-1.5-1.7-2.2c-1.2-1.1-2.7-1.8-4.4-2.3C266.6-21.3,265.7-21.4,264.7-21.4L264.7-21.4z"/>
	<path id="Pfad_10" class="st0" d="M285.2-28.5l-0.5,0C284.9-28.6,285-28.6,285.2-28.5z"/>
	<path id="Pfad_11" class="st0" d="M288.9-16.7c0-0.1,0-0.2,0-0.3C288.9-16.9,288.9-16.8,288.9-16.7z"/>
	<path id="Pfad_12" class="st0" d="M288.8-16.2c0-0.1,0-0.1,0-0.2C288.8-16.3,288.8-16.2,288.8-16.2z"/>
	<path id="Pfad_13" class="st0" d="M284.4-28.6h-0.2H284.4z"/>
	<path id="Pfad_14" class="st0" d="M288.9-17.4c0,0,0-0.1,0-0.1C288.9-17.5,288.9-17.4,288.9-17.4z"/>
	<path id="Pfad_15" class="st0" d="M286.1-28.5H286C286-28.5,286.1-28.5,286.1-28.5z"/>
	<path id="Pfad_16" class="st0" d="M254.4-1.1C254.4-1,254.4-1,254.4-1.1L254.4-1.1C254.4-1,254.4-1.1,254.4-1.1z"/>
	<path id="Pfad_17" class="st0" d="M263.7-5.6c0-0.4,0-0.7,0-1.1c0-0.1,0-0.1-0.1-0.2c-0.7-0.4-0.8-1.2-0.2-1.7
		c0.2-0.2,0.5-0.3,0.8-0.4c0.8-0.2,1.6,0.2,1.9,0.8c0.2,0.5,0,1-0.4,1.3c-0.1,0.1-0.1,0.1-0.1,0.2c0,0.7,0,1.4,0,2
		c0,0.4-0.3,0.7-0.8,0.8c-0.5,0-1-0.2-1.1-0.6C263.7-4.8,263.7-5.2,263.7-5.6L263.7-5.6z"/>
</g>
</svg>
