<?xml version="1.0" encoding="utf-8"?>
<!-- Generator: Adobe Illustrator 27.7.0, SVG Export Plug-In . SVG Version: 6.00 Build 0)  -->
<svg version="1.1" id="Ebene_1" xmlns="http://www.w3.org/2000/svg" xmlns:xlink="http://www.w3.org/1999/xlink" x="0px" y="0px"
	 viewBox="0 0 343 254" style="enable-background:new 0 0 343 254;" xml:space="preserve">
<g>
	<path d="M112,110.1c18.6,0,37.2,0,55.7,0c2,0,2.9-0.3,2.8-2.6c-0.1-5,3-8,8.1-8c16.4,0,32.8,0,49.2,0c5.4,0,8.4,2.9,8.4,8.3
		c0,2.1,0.8,2.4,2.6,2.4c15-0.1,30-0.1,45,0c6.7,0,11.7,3.4,13.4,9.1c2.7,8.6-3.6,16.6-13.3,16.6c-13.7,0.1-27.3,0-41,0
		c-0.4,0-0.8,0-1.2,0c-1.6,0-3.4-0.4-4.7,0.2c-1.6,0.7-0.5,2.8-0.9,4.3c-0.8,3.6-3.5,6.1-7.2,6.1c-17.1,0.1-34.2,0.1-51.2,0
		c-4.3,0-7.4-3.3-7.3-7.8c0.1-2.4-0.8-2.8-2.9-2.8c-37,0.1-74,0-111,0.1c-5.2,0-9.7-1.5-12.6-6.1c-2.6-4.2-2.8-8.7-0.3-13.1
		c2.7-4.8,7-6.6,12.3-6.7c14.7,0,29.3,0,44,0C104,110.1,108,110.1,112,110.1z"/>
	<path d="M233.5,213c-17.2,0-34.3,0-51.5,0c-2,0-2.7,0.4-2.7,2.6c0,5.1-3,8.1-8.1,8.1c-16.6,0.1-33.2,0.1-49.7,0c-5.1,0-8.1-3-8-8.1
		c0-2.2-0.6-2.6-2.7-2.6c-18.3,0.1-36.7,0.1-55,0c-7,0-12-3.7-13.5-9.9c-1.8-7.5,3.4-14.9,11.1-15.6c1.3-0.1,2.7-0.2,4-0.2
		c17.7,0,35.5,0,53.2,0c2,0,2.9-0.3,2.8-2.7c-0.1-5,3-8.1,8.1-8.1c16.5,0,33,0,49.5,0c5.1,0,8.3,3,8.2,8c0,2.5,1,2.8,3,2.8
		c33.5,0,67,0,100.5,0c2.7,0,5.3,0.1,7.8,1.3c5.1,2.5,8.1,8.2,7.1,13.6c-1,5.8-5.5,10-11.3,10.7c-1.1,0.1-2.2,0.1-3.2,0.1
		C266.7,213,250.1,213,233.5,213z"/>
	<path d="M216.8,58.7c-22.4,0-44.8,0-67.2,0c-2.2,0-3.2,0.3-3.1,2.9c0.1,4.8-3.2,7.9-8.1,7.9c-16.6,0-33.2,0-49.7,0
		c-4.9,0-8.1-3.1-8-8c0-2.5-0.9-2.8-3-2.8c-7.2,0.1-14.5,0.1-21.7,0c-6.6-0.1-11.1-3.1-13.1-8.5c-3-8.5,3-17,12.2-17.2
		c7.7-0.1,15.3-0.1,23,0c1.8,0,2.6-0.2,2.6-2.4c-0.1-5.4,2.9-8.3,8.3-8.3c16.4,0,32.8,0,49.2,0c5.3,0,8.3,2.9,8.2,8.2
		c0,2.3,0.8,2.5,2.7,2.5c44.9,0,89.8,0,134.7,0c7.2,0,12.2,3.6,13.8,9.9c1.8,7.4-3.5,14.9-11.1,15.6c-1.3,0.1-2.7,0.2-4,0.2
		C260.6,58.7,238.7,58.7,216.8,58.7z"/>
</g>
</svg>
