<svg xmlns="http://www.w3.org/2000/svg" xmlns:xlink="http://www.w3.org/1999/xlink" width="358" height="30" viewBox="0 0 358 30">
  <defs>
    <clipPath id="clip-path">
      <rect id="Rectangle_36" data-name="Rectangle 36" width="40" height="30" fill="#3e3e3e"/>
    </clipPath>
    <clipPath id="clip-path-2">
      <rect id="Rectangle_37" data-name="Rectangle 37" width="10" height="12.818" fill="#c30000"/>
    </clipPath>
  </defs>
  <g id="Group_43" data-name="Group 43" transform="translate(-35 -2156)">
    <g id="Group_29" data-name="Group 29" transform="translate(35 2156)">
      <g id="Group_28" data-name="Group 28" transform="translate(0 0)" clip-path="url(#clip-path)">
        <path id="Path_21" data-name="Path 21" d="M39.511,7.231a2.255,2.255,0,0,0-1.733-.8H35.555a2.183,2.183,0,0,0-2.222-2.143H31.111V2.143A2.183,2.183,0,0,0,28.889,0H2.222A2.183,2.183,0,0,0,0,2.143V27.857A2.183,2.183,0,0,0,2.222,30H17.208V22.355H14.429a1.112,1.112,0,0,1-1.026-.661,1.043,1.043,0,0,1,.241-1.168l7.778-7.5a1.14,1.14,0,0,1,1.571,0l7.777,7.5a1.043,1.043,0,0,1,.241,1.168,1.112,1.112,0,0,1-1.026.661H27.208V30h6.125A2.205,2.205,0,0,0,35.5,28.322l2.551-11.069,1.894-8.217a2.083,2.083,0,0,0-.436-1.806M28.889,4.286H26.667a2.183,2.183,0,0,0-2.222,2.143H11.111A2.205,2.205,0,0,0,8.942,8.106L4.5,27.392a2.056,2.056,0,0,0-.052.465H2.222V2.143H28.889Z" transform="translate(0 0)" fill="#3e3e3e"/>
      </g>
    </g>
    <g id="Button" transform="translate(368 2159)" fill="none">
      <path d="M0,0H25V25H0Z" stroke="none"/>
      <path d="M 2 2 L 2 23 L 23 23 L 23 2 L 2 2 M 0 0 L 25 0 L 25 25 L 0 25 L 0 0 Z" stroke="none" fill="#3e3e3e"/>
    </g>
    <g id="Group_34" data-name="Group 34" transform="translate(376 2165)">
      <g id="Group_32" data-name="Group 32" clip-path="url(#clip-path-2)">
        <path id="Path_22" data-name="Path 22" d="M10,11.063c0-.215,0-.43,0-.644l0-.431c0-.027.007-.053.007-.08q0-1.47,0-2.941c0-.027,0-.053-.006-.08V6.8q0-.312,0-.625l-.006-.038c-.013-.041-.028-.082-.039-.124a.655.655,0,0,0-.627-.451c-.117.008-.236,0-.359,0,0-.051,0-.089,0-.128q0-.482,0-.965V4.09c-.01-.177-.022-.353-.03-.53A3.253,3.253,0,0,0,8.712,2.6a3.741,3.741,0,0,0-.467-.9l-.213-.272c-.144-.152-.279-.316-.436-.454A3.552,3.552,0,0,0,6.59.345C6.4.27,6.213.211,6.024.144L5.773.091A5.662,5.662,0,0,0,5.2.007,3.923,3.923,0,0,0,2,1.313a3.638,3.638,0,0,0-.613.9,4.925,4.925,0,0,0-.293.789,7.386,7.386,0,0,0-.121.814l.01.019q0,.628,0,1.256c0,.065,0,.13.007.195v.02l-.014.234H.628l-.037.014a.6.6,0,0,0-.378.181L.2,5.755l-.1.146-.021.04-.013.014L.051,5.99.024,6.1a.024.024,0,0,0-.006.015L0,6.134a.02.02,0,0,0,0,.017l.01.019V6.2q0,.037,0,.074a.341.341,0,0,0-.006.044q0,1.736,0,3.473,0,1.195,0,2.39l0,.027a.674.674,0,0,0,.195.394c.075.068.139.152.253.159a.653.653,0,0,0,.172.049q1.5.005,3.01,0c.033,0,.065,0,.1,0h.359c.024,0,.047,0,.071,0H7c.086,0,.172,0,.259,0h.306a.149.149,0,0,0,.026,0c.579,0,1.159,0,1.738,0a.606.606,0,0,0,.229-.049A.688.688,0,0,0,10,12.093c0-.343,0-.687,0-1.03M2.168,3.9l.128.051h0L2.168,3.9m2.366,7L3.481,9.838c-.1-.1-.205-.209-.31-.31-.048-.046-.067-.068,0-.128.179-.162.347-.337.515-.511.056-.058.092-.057.143,0s.1.1.153.149l.179.179.4.383a.781.781,0,0,0,.07-.058L6.639,7.536c.084-.084.085-.083.169,0l.545.537-2.82,2.818M7.49,5.539l-.05.009h-.09l-.036.117.036-.117c-.033,0-.065,0-.1,0h-4.8v-.1q0-.7,0-1.406c0-.03,0-.059-.005-.089s0-.059,0-.089V3.75l.01-.072,0-.017.016-.216a2.3,2.3,0,0,1,.282-.875A2.6,2.6,0,0,1,3.3,1.893a2.107,2.107,0,0,1,.69-.429,3.5,3.5,0,0,1,.7-.181,2.791,2.791,0,0,1,.568.013,2.037,2.037,0,0,1,.592.139,2.412,2.412,0,0,1,1.2.946c.01.015.022.028.033.042l.122.2.021.054.032.055c.056.183.124.363.164.549a2.668,2.668,0,0,1,.062.525c.008.579,0,1.158,0,1.737" transform="translate(0 0)" fill="#c30000"/>
      </g>
    </g>
  </g>
</svg>
