<svg xmlns="http://www.w3.org/2000/svg" width="153.23" height="171.542" viewBox="0 0 153.23 171.542">
  <g id="Group_16" data-name="Group 16" transform="translate(-855.844 -3348.778)">
    <g id="Schloss" transform="translate(855.844 3348.779)">
      <path id="Path_9" data-name="Path 9" d="M398.979,96.212c-.3,2.55-.594,5.1-.928,7.649-.223,1.788-.483,3.576-.743,5.364-.408,2.516-.817,5.066-1.3,7.582s-1,5.033-1.671,7.516c-.965,3.642-1.893,7.318-3.119,10.894-1.6,4.6-3.452,9.139-5.309,13.675-1,2.483-2.191,4.9-3.416,7.284-1.188,2.318-2.525,4.569-3.9,6.821-1.448,2.351-2.858,4.735-4.529,6.953-2.3,3.113-4.79,6.126-7.277,9.139a90.31,90.31,0,0,1-11.473,11.456,109.948,109.948,0,0,1-18.75,13.145c-4.01,2.185-8.131,4.205-12.215,6.291a1.409,1.409,0,0,1-1.522-.033c-1.448-.762-3.007-1.358-4.455-2.086-2-1.027-4.01-2.086-5.941-3.179s-3.9-2.119-5.755-3.344c-2.784-1.788-5.458-3.708-8.131-5.629a110.132,110.132,0,0,1-15.408-13.642c-2.376-2.483-4.53-5.165-6.646-7.847-1.857-2.318-3.564-4.735-5.235-7.152-1.263-1.821-2.413-3.709-3.49-5.629-1.857-3.311-3.676-6.589-5.347-9.966-1.411-2.914-2.6-5.894-3.75-8.874q-1.949-5.016-3.564-10.132c-.817-2.583-1.448-5.232-2.116-7.847-.854-3.543-1.745-7.086-2.45-10.629-.669-3.41-1.077-6.854-1.56-10.264-.409-2.848-.817-5.662-1.077-8.51-.3-3.311-.483-6.655-.594-10-.185-6.39-.26-12.814-.371-19.2-.037-1.159-.037-2.318-.037-3.477v-7.02h4.27c3.527,0,7.054.1,10.581-.033,3.119-.1,6.238-.364,9.319-.662,2.413-.2,4.864-.43,7.24-.828,4.121-.662,8.206-1.391,12.253-2.252a107.983,107.983,0,0,0,23.391-7.914c3.082-1.457,6.015-3.278,8.948-4.967a1.044,1.044,0,0,1,1.225-.033c3.007,1.722,5.94,3.51,9.059,5.066a74.9,74.9,0,0,0,7.2,2.98c2.413.927,4.827,1.788,7.277,2.55A124.887,124.887,0,0,0,362.89,53.1c3.676.629,7.426,1.06,11.139,1.523,1.856.232,3.713.331,5.532.5.3,0,.631.033.928.033.408.033.854.066,1.263.066l2.079.1,3.342.1c.185,0,.371.033.557.033h11.918c.037.066.111.132.111.166.074,2.616.148,5.232.223,7.814.074,3.477.148,6.92.148,10.4,0,2.318-.074,4.6-.148,6.92-.112,2.483-.26,4.967-.371,7.483-.037.927-.111,1.854-.185,2.781,0,.232-.037.464-.037.7-.037.364-.074.762-.074,1.126-.037.464-.074.894-.148,1.358-.037.331-.037.629-.074.96A3.238,3.238,0,0,1,398.979,96.212Zm-107.3,54.633c.557,1.424,1.411,1.92,3.23,1.92q28.682,0,57.364.033c2.005,0,3.416-1.159,3.416-3.146,0-12.384-.037-24.767,0-37.151,0-2.119-1.41-3.245-3.6-3.245q-28.515.05-56.993,0c-2.19,0-3.638.993-3.6,3.179.074,12.417.037,24.833.037,37.25a9,9,0,0,0,.111.993.113.113,0,0,1-.037.066C291.6,150.779,291.64,150.812,291.677,150.845Zm32.116-73.871a74.241,74.241,0,0,0-7.723.927,30.438,30.438,0,0,0-11.584,5.331,26.519,26.519,0,0,0-8.465,9.867,36.662,36.662,0,0,0-2.3,6.755,20.78,20.78,0,0,0-.409,4.569c-.037,1.424,1.671,2.881,3.268,2.881,1.856-.033,3.6-1.093,3.6-3.278a17.528,17.528,0,0,1,1.3-6.722,19.861,19.861,0,0,1,4.6-7.02,24.245,24.245,0,0,1,19.6-6.986,25.519,25.519,0,0,1,8.28,2.152,22.244,22.244,0,0,1,8.577,6.523,16.953,16.953,0,0,1,3.379,6.39c.482,2.053.743,4.139,1.04,6.192a3.384,3.384,0,0,0,3.6,2.748c1.634-.132,3.193-1.159,3.119-3.046a19.648,19.648,0,0,0-.223-3.609,34.353,34.353,0,0,0-1.708-6.126,25.574,25.574,0,0,0-5.161-7.847,31.005,31.005,0,0,0-13.775-8.245A32.578,32.578,0,0,0,323.793,76.975Z" transform="translate(-246.9 -38.648)" fill="#065d4d"/>
      <path id="Path_10" data-name="Path 10" d="M612.194,89l-1.794-.1A17.3,17.3,0,0,1,612.194,89Z" transform="translate(-472.928 -72.805)" fill="#065d4d"/>
      <path id="Path_11" data-name="Path 11" d="M657.2,203.813c.032-.448.064-.865.128-1.313C657.3,202.948,657.265,203.365,657.2,203.813Z" transform="translate(-504.739 -148.233)" fill="#065d4d"/>
      <path id="Path_12" data-name="Path 12" d="M656.5,210.461c.064-.32.1-.641.161-.961C656.629,209.82,656.564,210.141,656.5,210.461Z" transform="translate(-504.263 -152.918)" fill="#065d4d"/>
      <path id="Path_13" data-name="Path 13" d="M605.3,88.532c-.257,0-.545-.032-.8-.032C604.756,88.5,605.044,88.532,605.3,88.532Z" transform="translate(-468.918 -72.533)" fill="#065d4d"/>
      <path id="Path_14" data-name="Path 14" d="M657.8,197.673c0-.224.032-.448.032-.673A4.7,4.7,0,0,1,657.8,197.673Z" transform="translate(-505.147 -144.561)" fill="#065d4d"/>
      <path id="Path_15" data-name="Path 15" d="M625.481,89.432c-.16,0-.321-.032-.481-.032A2.433,2.433,0,0,0,625.481,89.432Z" transform="translate(-482.852 -73.145)" fill="#065d4d"/>
      <path id="Path_16" data-name="Path 16" d="M367.264,377c0,.064.032.1.032.16l-.1-.1C367.2,377.032,367.232,377.032,367.264,377Z" transform="translate(-322.53 -264.964)" fill="#065d4d"/>
      <path id="Path_17" data-name="Path 17" d="M437.763,296.036c0-1.7.032-3.427-.032-5.125a1.519,1.519,0,0,0-.384-.865c-1.7-1.762-2.595-3.78-1.7-6.214a5.694,5.694,0,0,1,3.972-3.651,5.762,5.762,0,0,1,6.79,3.491,6.146,6.146,0,0,1-1.441,6.213,1.7,1.7,0,0,0-.48,1.089c-.032,3.139-.032,6.31-.032,9.449a3.7,3.7,0,0,1-2.915,3.747c-1.6.352-3.779-1.441-3.779-2.85.064-1.762.032-3.523,0-5.285Z" transform="translate(-364.437 -199.628)" fill="#065d4d"/>
    </g>
  </g>
</svg>
