<svg width="256" height="21" viewBox="0 0 256 21" fill="none" xmlns="http://www.w3.org/2000/svg">
<path d="M12.6405 2.48C13.0085 2.48 13.3285 2.616 13.6005 2.888C13.8725 3.16 14.0085 3.48 14.0085 3.848V5.072C14.0085 5.44 13.8725 5.76 13.6005 6.032C13.3285 6.304 13.0085 6.44 12.6405 6.44H9.71252C9.56852 6.44 9.49652 6.512 9.49652 6.656V18.632C9.49652 19 9.36052 19.32 9.08852 19.592C8.83252 19.864 8.52052 20 8.15252 20H5.94452C5.57652 20 5.25652 19.864 4.98452 19.592C4.72852 19.32 4.60052 19 4.60052 18.632V6.656C4.60052 6.512 4.52852 6.44 4.38452 6.44H1.45652C1.08852 6.44 0.768524 6.304 0.496524 6.032C0.224523 5.76 0.0885234 5.44 0.0885234 5.072V3.848C0.0885234 3.48 0.224523 3.16 0.496524 2.888C0.768524 2.616 1.08852 2.48 1.45652 2.48H12.6405ZM29.2193 2.48C29.5873 2.48 29.9073 2.616 30.1793 2.888C30.4513 3.16 30.5873 3.48 30.5873 3.848V13.52C30.5873 15.76 29.9953 17.44 28.8113 18.56C27.6273 19.68 25.8993 20.24 23.6273 20.24C21.3553 20.24 19.6273 19.68 18.4433 18.56C17.2593 17.44 16.6673 15.76 16.6673 13.52V3.848C16.6673 3.48 16.8033 3.16 17.0753 2.888C17.3473 2.616 17.6673 2.48 18.0353 2.48H20.1473C20.5153 2.48 20.8353 2.616 21.1073 2.888C21.3793 3.16 21.5153 3.48 21.5153 3.848V13.88C21.5153 14.808 21.6833 15.464 22.0193 15.848C22.3553 16.216 22.9073 16.4 23.6753 16.4C24.4433 16.4 24.9953 16.216 25.3313 15.848C25.6673 15.464 25.8353 14.808 25.8353 13.88V3.848C25.8353 3.48 25.9713 3.16 26.2433 2.888C26.5153 2.616 26.8353 2.48 27.2033 2.48H29.2193ZM39.4982 8.96C41.7382 9.616 43.2982 10.4 44.1782 11.312C45.0582 12.224 45.4982 13.44 45.4982 14.96C45.4982 18.48 43.2182 20.24 38.6582 20.24C37.2022 20.24 35.8822 20 34.6982 19.52C34.3302 19.376 34.0342 19.12 33.8102 18.752C33.6022 18.384 33.4982 17.984 33.4982 17.552V16.328C33.4982 16.024 33.6262 15.8 33.8822 15.656C34.1382 15.512 34.4022 15.504 34.6742 15.632C35.9382 16.224 37.1862 16.52 38.4182 16.52C39.8582 16.52 40.5782 16.04 40.5782 15.08C40.5782 14.632 40.4662 14.288 40.2422 14.048C40.0182 13.808 39.6102 13.592 39.0182 13.4C36.8902 12.744 35.3542 11.928 34.4102 10.952C33.4822 9.96 33.0182 8.736 33.0182 7.28C33.0182 5.712 33.5782 4.48 34.6982 3.584C35.8342 2.688 37.4742 2.24 39.6182 2.24C41.1542 2.24 42.5222 2.408 43.7222 2.744C44.1062 2.856 44.4182 3.088 44.6582 3.44C44.8982 3.776 45.0182 4.152 45.0182 4.568V5.744C45.0182 6.064 44.8822 6.32 44.6102 6.512C44.3542 6.688 44.0662 6.72 43.7462 6.608C42.3222 6.144 41.0262 5.912 39.8582 5.912C38.5462 5.912 37.8902 6.368 37.8902 7.28C37.8902 8.08 38.4262 8.64 39.4982 8.96ZM60.9593 2.48C61.3273 2.48 61.6473 2.616 61.9193 2.888C62.1913 3.16 62.3273 3.48 62.3273 3.848V18.632C62.3273 19 62.1913 19.32 61.9193 19.592C61.6473 19.864 61.3273 20 60.9593 20H58.8953C58.5273 20 58.2073 19.864 57.9353 19.592C57.6633 19.32 57.5273 19 57.5273 18.632V13.016C57.5273 12.872 57.4633 12.8 57.3353 12.8H53.4233C53.2793 12.8 53.2073 12.872 53.2073 13.016V18.632C53.2073 19 53.0713 19.32 52.7993 19.592C52.5273 19.864 52.2073 20 51.8393 20H49.7753C49.4073 20 49.0873 19.864 48.8153 19.592C48.5433 19.32 48.4073 19 48.4073 18.632V3.848C48.4073 3.48 48.5433 3.16 48.8153 2.888C49.0873 2.616 49.4073 2.48 49.7753 2.48H51.8393C52.2073 2.48 52.5273 2.616 52.7993 2.888C53.0713 3.16 53.2073 3.48 53.2073 3.848V8.984C53.2073 9.128 53.2793 9.2 53.4233 9.2H57.3353C57.4633 9.2 57.5273 9.128 57.5273 8.984V3.848C57.5273 3.48 57.6633 3.16 57.9353 2.888C58.2073 2.616 58.5273 2.48 58.8953 2.48H60.9593ZM71.0053 13.04H73.5013C73.5493 13.04 73.5893 13.024 73.6213 12.992C73.6693 12.944 73.6853 12.896 73.6693 12.848L72.2773 6.584C72.2773 6.568 72.2693 6.56 72.2533 6.56C72.2373 6.56 72.2293 6.568 72.2293 6.584L70.8373 12.848C70.8213 12.896 70.8293 12.944 70.8613 12.992C70.9093 13.024 70.9573 13.04 71.0053 13.04ZM75.2293 3.776L79.9333 18.704C80.0293 19.024 79.9733 19.32 79.7653 19.592C79.5733 19.864 79.3093 20 78.9733 20H76.6213C76.2213 20 75.8613 19.88 75.5413 19.64C75.2373 19.384 75.0453 19.064 74.9653 18.68L74.5573 16.832C74.5253 16.704 74.4453 16.64 74.3173 16.64H70.2133C70.0533 16.64 69.9653 16.704 69.9493 16.832L69.5413 18.68C69.4613 19.064 69.2613 19.384 68.9413 19.64C68.6373 19.88 68.2853 20 67.8853 20H65.6293C65.2933 20 65.0213 19.864 64.8133 19.592C64.6213 19.32 64.5733 19.024 64.6693 18.704L69.3733 3.776C69.4853 3.392 69.7013 3.08 70.0213 2.84C70.3573 2.6 70.7333 2.48 71.1493 2.48H73.4533C73.8533 2.48 74.2133 2.6 74.5333 2.84C74.8693 3.08 75.1013 3.392 75.2293 3.776ZM88.0401 10.4C88.8561 10.4 89.4961 10.2 89.9601 9.8C90.4401 9.384 90.6801 8.824 90.6801 8.12C90.6801 6.6 89.8001 5.84 88.0401 5.84C87.6401 5.84 87.2721 5.864 86.9361 5.912C86.7921 5.944 86.7201 6.032 86.7201 6.176V10.184C86.7201 10.328 86.7921 10.4 86.9361 10.4H88.0401ZM94.2321 15.2L95.5041 18.728C95.6161 19.048 95.5761 19.344 95.3841 19.616C95.1921 19.872 94.9281 20 94.5921 20H92.4081C91.9921 20 91.6161 19.88 91.2801 19.64C90.9441 19.4 90.7201 19.088 90.6081 18.704L89.5521 15.44C89.3761 14.88 89.1521 14.48 88.8801 14.24C88.6081 14 88.2481 13.88 87.8001 13.88H86.9361C86.7921 13.88 86.7201 13.952 86.7201 14.096V18.632C86.7201 19 86.5841 19.32 86.3121 19.592C86.0401 19.864 85.7201 20 85.3521 20H83.4081C83.0401 20 82.7201 19.864 82.4481 19.592C82.1761 19.32 82.0401 19 82.0401 18.632V3.968C82.0401 3.584 82.1601 3.248 82.4001 2.96C82.6561 2.656 82.9761 2.488 83.3601 2.456C84.9281 2.312 86.5681 2.24 88.2801 2.24C93.0801 2.24 95.4801 4.04 95.4801 7.64C95.4801 8.648 95.1681 9.584 94.5441 10.448C93.9361 11.312 93.1361 11.928 92.1441 12.296C92.1281 12.296 92.1201 12.304 92.1201 12.32C92.1201 12.352 92.1281 12.368 92.1441 12.368C92.6241 12.64 93.0161 12.984 93.3201 13.4C93.6401 13.816 93.9441 14.416 94.2321 15.2Z" fill="white"/>
<path d="M12.6405 2.48C13.0085 2.48 13.3285 2.616 13.6005 2.888C13.8725 3.16 14.0085 3.48 14.0085 3.848V5.072C14.0085 5.44 13.8725 5.76 13.6005 6.032C13.3285 6.304 13.0085 6.44 12.6405 6.44H9.71252C9.56852 6.44 9.49652 6.512 9.49652 6.656V18.632C9.49652 19 9.36052 19.32 9.08852 19.592C8.83252 19.864 8.52052 20 8.15252 20H5.94452C5.57652 20 5.25652 19.864 4.98452 19.592C4.72852 19.32 4.60052 19 4.60052 18.632V6.656C4.60052 6.512 4.52852 6.44 4.38452 6.44H1.45652C1.08852 6.44 0.768524 6.304 0.496524 6.032C0.224523 5.76 0.0885234 5.44 0.0885234 5.072V3.848C0.0885234 3.48 0.224523 3.16 0.496524 2.888C0.768524 2.616 1.08852 2.48 1.45652 2.48H12.6405ZM29.2193 2.48C29.5873 2.48 29.9073 2.616 30.1793 2.888C30.4513 3.16 30.5873 3.48 30.5873 3.848V13.52C30.5873 15.76 29.9953 17.44 28.8113 18.56C27.6273 19.68 25.8993 20.24 23.6273 20.24C21.3553 20.24 19.6273 19.68 18.4433 18.56C17.2593 17.44 16.6673 15.76 16.6673 13.52V3.848C16.6673 3.48 16.8033 3.16 17.0753 2.888C17.3473 2.616 17.6673 2.48 18.0353 2.48H20.1473C20.5153 2.48 20.8353 2.616 21.1073 2.888C21.3793 3.16 21.5153 3.48 21.5153 3.848V13.88C21.5153 14.808 21.6833 15.464 22.0193 15.848C22.3553 16.216 22.9073 16.4 23.6753 16.4C24.4433 16.4 24.9953 16.216 25.3313 15.848C25.6673 15.464 25.8353 14.808 25.8353 13.88V3.848C25.8353 3.48 25.9713 3.16 26.2433 2.888C26.5153 2.616 26.8353 2.48 27.2033 2.48H29.2193ZM39.4982 8.96C41.7382 9.616 43.2982 10.4 44.1782 11.312C45.0582 12.224 45.4982 13.44 45.4982 14.96C45.4982 18.48 43.2182 20.24 38.6582 20.24C37.2022 20.24 35.8822 20 34.6982 19.52C34.3302 19.376 34.0342 19.12 33.8102 18.752C33.6022 18.384 33.4982 17.984 33.4982 17.552V16.328C33.4982 16.024 33.6262 15.8 33.8822 15.656C34.1382 15.512 34.4022 15.504 34.6742 15.632C35.9382 16.224 37.1862 16.52 38.4182 16.52C39.8582 16.52 40.5782 16.04 40.5782 15.08C40.5782 14.632 40.4662 14.288 40.2422 14.048C40.0182 13.808 39.6102 13.592 39.0182 13.4C36.8902 12.744 35.3542 11.928 34.4102 10.952C33.4822 9.96 33.0182 8.736 33.0182 7.28C33.0182 5.712 33.5782 4.48 34.6982 3.584C35.8342 2.688 37.4742 2.24 39.6182 2.24C41.1542 2.24 42.5222 2.408 43.7222 2.744C44.1062 2.856 44.4182 3.088 44.6582 3.44C44.8982 3.776 45.0182 4.152 45.0182 4.568V5.744C45.0182 6.064 44.8822 6.32 44.6102 6.512C44.3542 6.688 44.0662 6.72 43.7462 6.608C42.3222 6.144 41.0262 5.912 39.8582 5.912C38.5462 5.912 37.8902 6.368 37.8902 7.28C37.8902 8.08 38.4262 8.64 39.4982 8.96ZM60.9593 2.48C61.3273 2.48 61.6473 2.616 61.9193 2.888C62.1913 3.16 62.3273 3.48 62.3273 3.848V18.632C62.3273 19 62.1913 19.32 61.9193 19.592C61.6473 19.864 61.3273 20 60.9593 20H58.8953C58.5273 20 58.2073 19.864 57.9353 19.592C57.6633 19.32 57.5273 19 57.5273 18.632V13.016C57.5273 12.872 57.4633 12.8 57.3353 12.8H53.4233C53.2793 12.8 53.2073 12.872 53.2073 13.016V18.632C53.2073 19 53.0713 19.32 52.7993 19.592C52.5273 19.864 52.2073 20 51.8393 20H49.7753C49.4073 20 49.0873 19.864 48.8153 19.592C48.5433 19.32 48.4073 19 48.4073 18.632V3.848C48.4073 3.48 48.5433 3.16 48.8153 2.888C49.0873 2.616 49.4073 2.48 49.7753 2.48H51.8393C52.2073 2.48 52.5273 2.616 52.7993 2.888C53.0713 3.16 53.2073 3.48 53.2073 3.848V8.984C53.2073 9.128 53.2793 9.2 53.4233 9.2H57.3353C57.4633 9.2 57.5273 9.128 57.5273 8.984V3.848C57.5273 3.48 57.6633 3.16 57.9353 2.888C58.2073 2.616 58.5273 2.48 58.8953 2.48H60.9593ZM71.0053 13.04H73.5013C73.5493 13.04 73.5893 13.024 73.6213 12.992C73.6693 12.944 73.6853 12.896 73.6693 12.848L72.2773 6.584C72.2773 6.568 72.2693 6.56 72.2533 6.56C72.2373 6.56 72.2293 6.568 72.2293 6.584L70.8373 12.848C70.8213 12.896 70.8293 12.944 70.8613 12.992C70.9093 13.024 70.9573 13.04 71.0053 13.04ZM75.2293 3.776L79.9333 18.704C80.0293 19.024 79.9733 19.32 79.7653 19.592C79.5733 19.864 79.3093 20 78.9733 20H76.6213C76.2213 20 75.8613 19.88 75.5413 19.64C75.2373 19.384 75.0453 19.064 74.9653 18.68L74.5573 16.832C74.5253 16.704 74.4453 16.64 74.3173 16.64H70.2133C70.0533 16.64 69.9653 16.704 69.9493 16.832L69.5413 18.68C69.4613 19.064 69.2613 19.384 68.9413 19.64C68.6373 19.88 68.2853 20 67.8853 20H65.6293C65.2933 20 65.0213 19.864 64.8133 19.592C64.6213 19.32 64.5733 19.024 64.6693 18.704L69.3733 3.776C69.4853 3.392 69.7013 3.08 70.0213 2.84C70.3573 2.6 70.7333 2.48 71.1493 2.48H73.4533C73.8533 2.48 74.2133 2.6 74.5333 2.84C74.8693 3.08 75.1013 3.392 75.2293 3.776ZM88.0401 10.4C88.8561 10.4 89.4961 10.2 89.9601 9.8C90.4401 9.384 90.6801 8.824 90.6801 8.12C90.6801 6.6 89.8001 5.84 88.0401 5.84C87.6401 5.84 87.2721 5.864 86.9361 5.912C86.7921 5.944 86.7201 6.032 86.7201 6.176V10.184C86.7201 10.328 86.7921 10.4 86.9361 10.4H88.0401ZM94.2321 15.2L95.5041 18.728C95.6161 19.048 95.5761 19.344 95.3841 19.616C95.1921 19.872 94.9281 20 94.5921 20H92.4081C91.9921 20 91.6161 19.88 91.2801 19.64C90.9441 19.4 90.7201 19.088 90.6081 18.704L89.5521 15.44C89.3761 14.88 89.1521 14.48 88.8801 14.24C88.6081 14 88.2481 13.88 87.8001 13.88H86.9361C86.7921 13.88 86.7201 13.952 86.7201 14.096V18.632C86.7201 19 86.5841 19.32 86.3121 19.592C86.0401 19.864 85.7201 20 85.3521 20H83.4081C83.0401 20 82.7201 19.864 82.4481 19.592C82.1761 19.32 82.0401 19 82.0401 18.632V3.968C82.0401 3.584 82.1601 3.248 82.4001 2.96C82.6561 2.656 82.9761 2.488 83.3601 2.456C84.9281 2.312 86.5681 2.24 88.2801 2.24C93.0801 2.24 95.4801 4.04 95.4801 7.64C95.4801 8.648 95.1681 9.584 94.5441 10.448C93.9361 11.312 93.1361 11.928 92.1441 12.296C92.1281 12.296 92.1201 12.304 92.1201 12.32C92.1201 12.352 92.1281 12.368 92.1441 12.368C92.6241 12.64 93.0161 12.984 93.3201 13.4C93.6401 13.816 93.9441 14.416 94.2321 15.2Z" fill="#97A658"/>
<path d="M111.629 16.23C113.103 16.23 114.203 15.762 114.931 14.826C115.677 13.89 116.049 12.3647 116.049 10.25C116.049 8.34333 115.677 6.95667 114.931 6.09C114.203 5.22333 113.103 4.79 111.629 4.79C111.3 4.79 110.979 4.816 110.667 4.868C110.529 4.90267 110.459 4.98933 110.459 5.128V15.866C110.459 16.022 110.529 16.1173 110.667 16.152C110.979 16.204 111.3 16.23 111.629 16.23ZM111.109 0.76C114.229 0.76 116.656 1.60067 118.389 3.282C120.123 4.946 120.989 7.26867 120.989 10.25C120.989 13.4913 120.114 15.97 118.363 17.686C116.63 19.402 114.212 20.26 111.109 20.26C109.74 20.26 108.319 20.1907 106.845 20.052C106.429 20.0173 106.083 19.8353 105.805 19.506C105.528 19.1767 105.389 18.804 105.389 18.388V2.632C105.389 2.216 105.528 1.84333 105.805 1.514C106.083 1.18467 106.429 1.00267 106.845 0.967999C108.319 0.829333 109.74 0.76 111.109 0.76ZM134.618 1.02C135.016 1.02 135.363 1.16733 135.658 1.462C135.952 1.75667 136.1 2.10333 136.1 2.502V3.698C136.1 4.09667 135.952 4.44333 135.658 4.738C135.363 5.03267 135.016 5.18 134.618 5.18H129.054C128.898 5.18 128.82 5.24933 128.82 5.388V8.066C128.82 8.222 128.898 8.3 129.054 8.3H134.098C134.496 8.3 134.843 8.44733 135.138 8.742C135.432 9.03667 135.58 9.38333 135.58 9.782V10.718C135.58 11.1167 135.432 11.4633 135.138 11.758C134.843 12.0527 134.496 12.2 134.098 12.2H129.054C128.898 12.2 128.82 12.2693 128.82 12.408V15.606C128.82 15.762 128.898 15.84 129.054 15.84H134.618C135.016 15.84 135.363 15.9873 135.658 16.282C135.952 16.5767 136.1 16.9233 136.1 17.322V18.518C136.1 18.9167 135.952 19.2633 135.658 19.558C135.363 19.8527 135.016 20 134.618 20H125.102C124.703 20 124.356 19.8527 124.062 19.558C123.767 19.2633 123.62 18.9167 123.62 18.518V2.502C123.62 2.10333 123.767 1.75667 124.062 1.462C124.356 1.16733 124.703 1.02 125.102 1.02H134.618ZM153.635 1.02C153.999 1.02 154.285 1.16733 154.493 1.462C154.719 1.75667 154.779 2.07733 154.675 2.424L149.579 18.596C149.441 19.012 149.189 19.35 148.825 19.61C148.479 19.87 148.089 20 147.655 20H145.159C144.709 20 144.301 19.87 143.937 19.61C143.591 19.35 143.357 19.012 143.235 18.596L138.139 2.424C138.035 2.07733 138.087 1.75667 138.295 1.462C138.521 1.16733 138.815 1.02 139.179 1.02H141.727C142.161 1.02 142.542 1.15867 142.871 1.436C143.218 1.696 143.435 2.034 143.521 2.45L146.329 15.034C146.329 15.0513 146.347 15.06 146.381 15.06C146.399 15.06 146.407 15.0513 146.407 15.034L149.371 2.45C149.475 2.034 149.692 1.696 150.021 1.436C150.368 1.15867 150.758 1.02 151.191 1.02H153.635ZM167.956 1.02C168.354 1.02 168.701 1.16733 168.996 1.462C169.29 1.75667 169.438 2.10333 169.438 2.502V3.698C169.438 4.09667 169.29 4.44333 168.996 4.738C168.701 5.03267 168.354 5.18 167.956 5.18H162.392C162.236 5.18 162.158 5.24933 162.158 5.388V8.066C162.158 8.222 162.236 8.3 162.392 8.3H167.436C167.834 8.3 168.181 8.44733 168.476 8.742C168.77 9.03667 168.918 9.38333 168.918 9.782V10.718C168.918 11.1167 168.77 11.4633 168.476 11.758C168.181 12.0527 167.834 12.2 167.436 12.2H162.392C162.236 12.2 162.158 12.2693 162.158 12.408V15.606C162.158 15.762 162.236 15.84 162.392 15.84H167.956C168.354 15.84 168.701 15.9873 168.996 16.282C169.29 16.5767 169.438 16.9233 169.438 17.322V18.518C169.438 18.9167 169.29 19.2633 168.996 19.558C168.701 19.8527 168.354 20 167.956 20H158.44C158.041 20 157.694 19.8527 157.4 19.558C157.105 19.2633 156.958 18.9167 156.958 18.518V2.502C156.958 2.10333 157.105 1.75667 157.4 1.462C157.694 1.16733 158.041 1.02 158.44 1.02H167.956ZM184.497 15.71C184.896 15.71 185.242 15.8573 185.537 16.152C185.832 16.4467 185.979 16.7933 185.979 17.192V18.518C185.979 18.9167 185.832 19.2633 185.537 19.558C185.242 19.8527 184.896 20 184.497 20H174.461C174.062 20 173.716 19.8527 173.421 19.558C173.126 19.2633 172.979 18.9167 172.979 18.518V2.502C172.979 2.10333 173.126 1.75667 173.421 1.462C173.716 1.16733 174.062 1.02 174.461 1.02H176.827C177.226 1.02 177.572 1.16733 177.867 1.462C178.162 1.75667 178.309 2.10333 178.309 2.502V15.476C178.309 15.632 178.387 15.71 178.543 15.71H184.497ZM191.993 10.51C191.993 14.15 193.249 15.97 195.763 15.97C198.276 15.97 199.533 14.15 199.533 10.51C199.533 6.87 198.276 5.05 195.763 5.05C193.249 5.05 191.993 6.87 191.993 10.51ZM189.107 3.36C190.736 1.62667 192.955 0.76 195.763 0.76C198.571 0.76 200.789 1.62667 202.419 3.36C204.048 5.09333 204.863 7.47667 204.863 10.51C204.863 13.5433 204.048 15.9267 202.419 17.66C200.789 19.3933 198.571 20.26 195.763 20.26C192.955 20.26 190.736 19.3933 189.107 17.66C187.477 15.9267 186.663 13.5433 186.663 10.51C186.663 7.47667 187.477 5.09333 189.107 3.36ZM213.725 10.38C214.852 10.38 215.718 10.12 216.325 9.6C216.932 9.08 217.235 8.34333 217.235 7.39C217.235 5.57 216.065 4.66 213.725 4.66C213.396 4.66 213.075 4.686 212.763 4.738C212.624 4.77267 212.555 4.868 212.555 5.024V10.068C212.555 10.2067 212.624 10.2933 212.763 10.328C213.179 10.3627 213.5 10.38 213.725 10.38ZM213.205 0.76C219.098 0.76 222.045 2.88333 222.045 7.13C222.045 9.43533 221.378 11.186 220.043 12.382C218.726 13.5607 216.793 14.15 214.245 14.15C213.864 14.15 213.378 14.1327 212.789 14.098C212.633 14.098 212.555 14.1673 212.555 14.306V18.518C212.555 18.9167 212.408 19.2633 212.113 19.558C211.818 19.8527 211.472 20 211.073 20H208.967C208.568 20 208.222 19.8527 207.927 19.558C207.632 19.2633 207.485 18.9167 207.485 18.518V2.632C207.485 2.216 207.624 1.84333 207.901 1.514C208.178 1.18467 208.525 1.00267 208.941 0.967999C210.414 0.829333 211.836 0.76 213.205 0.76ZM235.545 1.02C235.944 1.02 236.291 1.16733 236.585 1.462C236.88 1.75667 237.027 2.10333 237.027 2.502V3.698C237.027 4.09667 236.88 4.44333 236.585 4.738C236.291 5.03267 235.944 5.18 235.545 5.18H229.981C229.825 5.18 229.747 5.24933 229.747 5.388V8.066C229.747 8.222 229.825 8.3 229.981 8.3H235.025C235.424 8.3 235.771 8.44733 236.065 8.742C236.36 9.03667 236.507 9.38333 236.507 9.782V10.718C236.507 11.1167 236.36 11.4633 236.065 11.758C235.771 12.0527 235.424 12.2 235.025 12.2H229.981C229.825 12.2 229.747 12.2693 229.747 12.408V15.606C229.747 15.762 229.825 15.84 229.981 15.84H235.545C235.944 15.84 236.291 15.9873 236.585 16.282C236.88 16.5767 237.027 16.9233 237.027 17.322V18.518C237.027 18.9167 236.88 19.2633 236.585 19.558C236.291 19.8527 235.944 20 235.545 20H226.029C225.631 20 225.284 19.8527 224.989 19.558C224.695 19.2633 224.547 18.9167 224.547 18.518V2.502C224.547 2.10333 224.695 1.75667 224.989 1.462C225.284 1.16733 225.631 1.02 226.029 1.02H235.545ZM247.069 9.6C247.953 9.6 248.646 9.38333 249.149 8.95C249.669 8.49933 249.929 7.89267 249.929 7.13C249.929 5.48333 248.976 4.66 247.069 4.66C246.636 4.66 246.237 4.686 245.873 4.738C245.717 4.77267 245.639 4.868 245.639 5.024V9.366C245.639 9.522 245.717 9.6 245.873 9.6H247.069ZM253.777 14.8L255.155 18.622C255.276 18.9687 255.233 19.2893 255.025 19.584C254.817 19.8613 254.531 20 254.167 20H251.801C251.35 20 250.943 19.87 250.579 19.61C250.215 19.35 249.972 19.012 249.851 18.596L248.707 15.06C248.516 14.4533 248.274 14.02 247.979 13.76C247.684 13.5 247.294 13.37 246.809 13.37H245.873C245.717 13.37 245.639 13.448 245.639 13.604V18.518C245.639 18.9167 245.492 19.2633 245.197 19.558C244.902 19.8527 244.556 20 244.157 20H242.051C241.652 20 241.306 19.8527 241.011 19.558C240.716 19.2633 240.569 18.9167 240.569 18.518V2.632C240.569 2.216 240.699 1.852 240.959 1.54C241.236 1.21067 241.583 1.02867 241.999 0.994C243.698 0.838 245.474 0.76 247.329 0.76C252.529 0.76 255.129 2.71 255.129 6.61C255.129 7.702 254.791 8.716 254.115 9.652C253.456 10.588 252.59 11.2553 251.515 11.654C251.498 11.654 251.489 11.6627 251.489 11.68C251.489 11.7147 251.498 11.732 251.515 11.732C252.035 12.0267 252.46 12.3993 252.789 12.85C253.136 13.3007 253.465 13.9507 253.777 14.8Z" fill="white"/>
<path d="M13.6005 6.032L13.4237 5.85522L13.4237 5.85522L13.6005 6.032ZM9.08852 19.592L8.91167 19.4151L8.90647 19.4207L9.08852 19.592ZM4.98452 19.592L4.80239 19.7634L4.80775 19.7688L4.98452 19.592ZM0.496524 6.032L0.6733 5.85522L0.6733 5.85522L0.496524 6.032ZM0.496524 2.888L0.319747 2.71122L0.319747 2.71122L0.496524 2.888ZM12.6405 2.73C12.9389 2.73 13.1963 2.83729 13.4237 3.06478L13.7773 2.71122C13.4608 2.3947 13.0781 2.23 12.6405 2.23V2.73ZM13.4237 3.06478C13.6512 3.29226 13.7585 3.54958 13.7585 3.848H14.2585C14.2585 3.41042 14.0938 3.02774 13.7773 2.71122L13.4237 3.06478ZM13.7585 3.848V5.072H14.2585V3.848H13.7585ZM13.7585 5.072C13.7585 5.37042 13.6512 5.62774 13.4237 5.85522L13.7773 6.20878C14.0938 5.89226 14.2585 5.50958 14.2585 5.072H13.7585ZM13.4237 5.85522C13.1963 6.0827 12.9389 6.19 12.6405 6.19V6.69C13.0781 6.69 13.4608 6.52529 13.7773 6.20878L13.4237 5.85522ZM12.6405 6.19H9.71252V6.69H12.6405V6.19ZM9.71252 6.19C9.60199 6.19 9.47317 6.2178 9.37375 6.31722C9.27433 6.41664 9.24652 6.54546 9.24652 6.656H9.74652C9.74652 6.64009 9.7486 6.63634 9.74719 6.64056C9.74539 6.64598 9.73984 6.65824 9.7273 6.67078C9.71476 6.68332 9.70251 6.68886 9.69708 6.69067C9.69287 6.69208 9.69661 6.69 9.71252 6.69V6.19ZM9.24652 6.656V18.632H9.74652V6.656H9.24652ZM9.24652 18.632C9.24652 18.9304 9.13923 19.1877 8.91175 19.4152L9.2653 19.7688C9.58182 19.4523 9.74652 19.0696 9.74652 18.632H9.24652ZM8.90647 19.4207C8.69691 19.6433 8.45043 19.75 8.15252 19.75V20.25C8.59062 20.25 8.96813 20.0847 9.27057 19.7633L8.90647 19.4207ZM8.15252 19.75H5.94452V20.25H8.15252V19.75ZM5.94452 19.75C5.6461 19.75 5.38878 19.6427 5.1613 19.4152L4.80775 19.7688C5.12427 20.0853 5.50695 20.25 5.94452 20.25V19.75ZM5.16657 19.4207C4.95349 19.1943 4.85052 18.9353 4.85052 18.632H4.35052C4.35052 19.0647 4.50356 19.4457 4.80247 19.7633L5.16657 19.4207ZM4.85052 18.632V6.656H4.35052V18.632H4.85052ZM4.85052 6.656C4.85052 6.54546 4.82272 6.41664 4.7233 6.31722C4.62388 6.2178 4.49506 6.19 4.38452 6.19V6.69C4.40044 6.69 4.40418 6.69208 4.39997 6.69067C4.39454 6.68886 4.38229 6.68332 4.36975 6.67078C4.35721 6.65824 4.35166 6.64598 4.34985 6.64056C4.34845 6.63634 4.35052 6.64009 4.35052 6.656H4.85052ZM4.38452 6.19H1.45652V6.69H4.38452V6.19ZM1.45652 6.19C1.1581 6.19 0.900782 6.0827 0.6733 5.85522L0.319747 6.20878C0.636265 6.52529 1.01895 6.69 1.45652 6.69V6.19ZM0.6733 5.85522C0.445819 5.62774 0.338523 5.37042 0.338523 5.072H-0.161477C-0.161477 5.50958 0.00322844 5.89226 0.319747 6.20878L0.6733 5.85522ZM0.338523 5.072V3.848H-0.161477V5.072H0.338523ZM0.338523 3.848C0.338523 3.54958 0.445819 3.29226 0.6733 3.06478L0.319747 2.71122C0.00322844 3.02774 -0.161477 3.41042 -0.161477 3.848H0.338523ZM0.6733 3.06478C0.900782 2.83729 1.1581 2.73 1.45652 2.73V2.23C1.01895 2.23 0.636265 2.3947 0.319747 2.71122L0.6733 3.06478ZM1.45652 2.73H12.6405V2.23H1.45652V2.73ZM30.1793 2.888L30.3561 2.71122L30.3561 2.71122L30.1793 2.888ZM28.8113 18.56L28.6395 18.3784L28.6395 18.3784L28.8113 18.56ZM18.4433 18.56L18.6151 18.3784L18.4433 18.56ZM17.0753 2.888L16.8985 2.71122L16.8985 2.71122L17.0753 2.888ZM21.1073 2.888L21.2841 2.71122L21.2841 2.71122L21.1073 2.888ZM22.0193 15.848L21.8311 16.0127L21.8347 16.0166L22.0193 15.848ZM25.3313 15.848L25.5159 16.0166L25.5194 16.0126L25.3313 15.848ZM26.2433 2.888L26.0665 2.71122L26.0665 2.71122L26.2433 2.888ZM29.2193 2.73C29.5177 2.73 29.775 2.83729 30.0025 3.06478L30.3561 2.71122C30.0395 2.3947 29.6569 2.23 29.2193 2.23V2.73ZM30.0025 3.06477C30.23 3.29226 30.3373 3.54958 30.3373 3.848H30.8373C30.8373 3.41042 30.6726 3.02774 30.3561 2.71122L30.0025 3.06477ZM30.3373 3.848V13.52H30.8373V3.848H30.3373ZM30.3373 13.52C30.3373 15.7178 29.7571 17.3212 28.6395 18.3784L28.9831 18.7416C30.2334 17.5588 30.8373 15.8022 30.8373 13.52H30.3373ZM28.6395 18.3784C27.5175 19.4397 25.8608 19.99 23.6273 19.99V20.49C25.9378 20.49 27.737 19.9203 28.9831 18.7416L28.6395 18.3784ZM23.6273 19.99C21.3938 19.99 19.737 19.4397 18.6151 18.3784L18.2715 18.7416C19.5175 19.9203 21.3168 20.49 23.6273 20.49V19.99ZM18.6151 18.3784C17.4974 17.3212 16.9173 15.7178 16.9173 13.52H16.4173C16.4173 15.8022 17.0211 17.5588 18.2715 18.7416L18.6151 18.3784ZM16.9173 13.52V3.848H16.4173V13.52H16.9173ZM16.9173 3.848C16.9173 3.54958 17.0246 3.29226 17.2521 3.06478L16.8985 2.71122C16.582 3.02774 16.4173 3.41042 16.4173 3.848H16.9173ZM17.2521 3.06478C17.4795 2.83729 17.7368 2.73 18.0353 2.73V2.23C17.5977 2.23 17.215 2.3947 16.8985 2.71122L17.2521 3.06478ZM18.0353 2.73H20.1473V2.23H18.0353V2.73ZM20.1473 2.73C20.4457 2.73 20.703 2.83729 20.9305 3.06478L21.2841 2.71122C20.9675 2.3947 20.5848 2.23 20.1473 2.23V2.73ZM20.9305 3.06478C21.158 3.29226 21.2653 3.54958 21.2653 3.848H21.7653C21.7653 3.41042 21.6006 3.02774 21.2841 2.71122L20.9305 3.06478ZM21.2653 3.848V13.88H21.7653V3.848H21.2653ZM21.2653 13.88C21.2653 14.8243 21.4335 15.5582 21.8311 16.0126L22.2074 15.6834C21.9331 15.3698 21.7653 14.7917 21.7653 13.88H21.2653ZM21.8347 16.0166C22.2386 16.4589 22.8747 16.65 23.6753 16.65V16.15C22.9398 16.15 22.472 15.9731 22.2039 15.6794L21.8347 16.0166ZM23.6753 16.65C24.4758 16.65 25.112 16.4589 25.5159 16.0166L25.1467 15.6794C24.8786 15.9731 24.4107 16.15 23.6753 16.15V16.65ZM25.5194 16.0126C25.9171 15.5582 26.0853 14.8243 26.0853 13.88H25.5853C25.5853 14.7917 25.4175 15.3698 25.1431 15.6834L25.5194 16.0126ZM26.0853 13.88V3.848H25.5853V13.88H26.0853ZM26.0853 3.848C26.0853 3.54958 26.1926 3.29226 26.4201 3.06478L26.0665 2.71122C25.75 3.02774 25.5853 3.41042 25.5853 3.848H26.0853ZM26.4201 3.06478C26.6475 2.83729 26.9049 2.73 27.2033 2.73V2.23C26.7657 2.23 26.383 2.3947 26.0665 2.71122L26.4201 3.06478ZM27.2033 2.73H29.2193V2.23H27.2033V2.73ZM39.4982 8.96L39.4267 9.19956L39.4279 9.19992L39.4982 8.96ZM44.1782 11.312L43.9983 11.4856L43.9983 11.4856L44.1782 11.312ZM34.6982 19.52L34.7921 19.2883L34.7893 19.2872L34.6982 19.52ZM33.8102 18.752L33.5925 18.8751L33.5967 18.882L33.8102 18.752ZM33.8822 15.656L34.0048 15.8739L34.0048 15.8739L33.8822 15.656ZM34.6742 15.632L34.5678 15.8582L34.5682 15.8584L34.6742 15.632ZM39.0182 13.4L39.0953 13.1622L39.0919 13.1611L39.0182 13.4ZM34.4102 10.952L34.2276 11.1228L34.2305 11.1258L34.4102 10.952ZM34.6982 3.584L34.5434 3.3877L34.542 3.38878L34.6982 3.584ZM43.7222 2.744L43.7922 2.50399L43.7896 2.50326L43.7222 2.744ZM44.6582 3.44L44.4516 3.58087L44.4548 3.58531L44.6582 3.44ZM44.6102 6.512L44.7519 6.71803L44.7544 6.71624L44.6102 6.512ZM43.7462 6.608L43.8288 6.37198L43.8237 6.3703L43.7462 6.608ZM39.4279 9.19992C41.656 9.85242 43.1644 10.6214 43.9983 11.4856L44.3581 11.1384C43.432 10.1786 41.8204 9.37957 39.5685 8.72008L39.4279 9.19992ZM43.9983 11.4856C44.8246 12.342 45.2482 13.491 45.2482 14.96H45.7482C45.7482 13.389 45.2918 12.106 44.3581 11.1384L43.9983 11.4856ZM45.2482 14.96C45.2482 16.6617 44.7004 17.9 43.6354 18.7221C42.5582 19.5537 40.913 19.99 38.6582 19.99V20.49C40.9634 20.49 42.7382 20.0463 43.941 19.1179C45.156 18.18 45.7482 16.7783 45.7482 14.96H45.2482ZM38.6582 19.99C37.2299 19.99 35.9424 19.7546 34.7921 19.2883L34.6043 19.7517C35.822 20.2454 37.1745 20.49 38.6582 20.49V19.99ZM34.7893 19.2872C34.477 19.165 34.222 18.9477 34.0238 18.622L33.5967 18.882C33.8464 19.2923 34.1835 19.587 34.6071 19.7528L34.7893 19.2872ZM34.0279 18.629C33.8415 18.2994 33.7482 17.9419 33.7482 17.552H33.2482C33.2482 18.0261 33.3629 18.4686 33.5926 18.875L34.0279 18.629ZM33.7482 17.552V16.328H33.2482V17.552H33.7482ZM33.7482 16.328C33.7482 16.1104 33.8309 15.9717 34.0048 15.8739L33.7596 15.4381C33.4216 15.6283 33.2482 15.9376 33.2482 16.328H33.7482ZM34.0048 15.8739C34.1883 15.7706 34.3669 15.7637 34.5678 15.8582L34.7807 15.4058C34.4375 15.2443 34.0881 15.2534 33.7596 15.4381L34.0048 15.8739ZM34.5682 15.8584C35.8609 16.4639 37.145 16.77 38.4182 16.77V16.27C37.2274 16.27 36.0155 15.9841 34.7802 15.4056L34.5682 15.8584ZM38.4182 16.77C39.1581 16.77 39.7567 16.6481 40.1769 16.368C40.6149 16.076 40.8282 15.6328 40.8282 15.08H40.3282C40.3282 15.4872 40.1815 15.764 39.8995 15.952C39.5997 16.1519 39.1183 16.27 38.4182 16.27V16.77ZM40.8282 15.08C40.8282 14.5921 40.7059 14.1784 40.425 13.8774L40.0594 14.2186C40.2266 14.3976 40.3282 14.6719 40.3282 15.08H40.8282ZM40.425 13.8774C40.1562 13.5894 39.6975 13.3575 39.0953 13.1622L38.9411 13.6378C39.5229 13.8265 39.8802 14.0266 40.0594 14.2186L40.425 13.8774ZM39.0919 13.1611C36.9812 12.5104 35.4915 11.7104 34.5899 10.7782L34.2305 11.1258C35.2169 12.1456 36.7992 12.9776 38.9446 13.6389L39.0919 13.1611ZM34.5928 10.7812C33.7114 9.83905 33.2682 8.67757 33.2682 7.28H32.7682C32.7682 8.79443 33.253 10.081 34.2276 11.1228L34.5928 10.7812ZM33.2682 7.28C33.2682 5.77986 33.7997 4.62294 34.8544 3.77922L34.542 3.38878C33.3567 4.33706 32.7682 5.64414 32.7682 7.28H33.2682ZM34.853 3.78029C35.9281 2.93234 37.5044 2.49 39.6182 2.49V1.99C37.444 1.99 35.7403 2.44366 34.5434 3.38771L34.853 3.78029ZM39.6182 2.49C41.1365 2.49 42.4811 2.65611 43.6548 2.98474L43.7896 2.50326C42.5633 2.15988 41.1719 1.99 39.6182 1.99V2.49ZM43.6522 2.984C43.9768 3.07867 44.242 3.27336 44.4517 3.58083L44.8648 3.29916C44.5944 2.90264 44.2356 2.63333 43.7922 2.504L43.6522 2.984ZM44.4548 3.58531C44.6643 3.87857 44.7682 4.20369 44.7682 4.568H45.2682C45.2682 4.10031 45.1322 3.67343 44.8616 3.29469L44.4548 3.58531ZM44.7682 4.568V5.744H45.2682V4.568H44.7682ZM44.7682 5.744C44.7682 5.97895 44.6749 6.16036 44.466 6.30776L44.7544 6.71624C45.0896 6.47964 45.2682 6.14905 45.2682 5.744H44.7682ZM44.4686 6.30599C44.2849 6.43224 44.0815 6.4605 43.8288 6.37203L43.6636 6.84396C44.0509 6.9795 44.4235 6.94376 44.7518 6.71801L44.4686 6.30599ZM43.8237 6.3703C42.3813 5.90033 41.0587 5.662 39.8582 5.662V6.162C40.9937 6.162 42.2631 6.38767 43.6688 6.8457L43.8237 6.3703ZM39.8582 5.662C39.181 5.662 38.6285 5.7783 38.2395 6.04872C37.834 6.33062 37.6402 6.75555 37.6402 7.28H38.1402C38.1402 6.89245 38.2744 6.63338 38.5249 6.45928C38.7919 6.2737 39.2235 6.162 39.8582 6.162V5.662ZM37.6402 7.28C37.6402 7.74212 37.7975 8.1447 38.1116 8.47286C38.42 8.79503 38.8664 9.03231 39.4267 9.19955L39.5697 8.72045C39.058 8.56769 38.7005 8.36497 38.4728 8.12714C38.2509 7.89529 38.1402 7.61788 38.1402 7.28H37.6402ZM61.9193 2.888L62.0961 2.71122L62.0961 2.71122L61.9193 2.888ZM57.9353 19.592L58.1121 19.4152L58.1121 19.4152L57.9353 19.592ZM52.7993 19.592L52.9761 19.7688L52.9761 19.7688L52.7993 19.592ZM48.8153 19.592L48.6385 19.7688L48.6385 19.7688L48.8153 19.592ZM48.8153 2.888L48.6385 2.71122L48.6385 2.71122L48.8153 2.888ZM52.7993 2.888L52.9761 2.71122L52.9761 2.71122L52.7993 2.888ZM57.9353 2.888L57.7585 2.71122L57.7585 2.71122L57.9353 2.888ZM60.9593 2.73C61.2577 2.73 61.515 2.83729 61.7425 3.06478L62.0961 2.71122C61.7795 2.3947 61.3969 2.23 60.9593 2.23V2.73ZM61.7425 3.06478C61.97 3.29226 62.0773 3.54958 62.0773 3.848H62.5773C62.5773 3.41042 62.4126 3.02774 62.0961 2.71122L61.7425 3.06478ZM62.0773 3.848V18.632H62.5773V3.848H62.0773ZM62.0773 18.632C62.0773 18.9304 61.97 19.1877 61.7425 19.4152L62.0961 19.7688C62.4126 19.4523 62.5773 19.0696 62.5773 18.632H62.0773ZM61.7425 19.4152C61.515 19.6427 61.2577 19.75 60.9593 19.75V20.25C61.3969 20.25 61.7795 20.0853 62.0961 19.7688L61.7425 19.4152ZM60.9593 19.75H58.8953V20.25H60.9593V19.75ZM58.8953 19.75C58.5969 19.75 58.3395 19.6427 58.1121 19.4152L57.7585 19.7688C58.075 20.0853 58.4577 20.25 58.8953 20.25V19.75ZM58.1121 19.4152C57.8846 19.1877 57.7773 18.9304 57.7773 18.632H57.2773C57.2773 19.0696 57.442 19.4523 57.7585 19.7688L58.1121 19.4152ZM57.7773 18.632V13.016H57.2773V18.632H57.7773ZM57.7773 13.016C57.7773 12.9122 57.7549 12.7877 57.6661 12.6879C57.5724 12.5825 57.4459 12.55 57.3353 12.55V13.05C57.3445 13.05 57.3416 13.0514 57.3315 13.0476C57.32 13.0433 57.3052 13.0344 57.2924 13.0201C57.2802 13.0064 57.2762 12.9948 57.2756 12.9925C57.2752 12.9911 57.2773 12.9977 57.2773 13.016H57.7773ZM57.3353 12.55H53.4233V13.05H57.3353V12.55ZM53.4233 12.55C53.3127 12.55 53.1839 12.5778 53.0845 12.6772C52.9851 12.7766 52.9573 12.9055 52.9573 13.016H53.4573C53.4573 13.0001 53.4593 12.9963 53.4579 13.0006C53.4561 13.006 53.4506 13.0182 53.4381 13.0308C53.4255 13.0433 53.4133 13.0489 53.4078 13.0507C53.4036 13.0521 53.4074 13.05 53.4233 13.05V12.55ZM52.9573 13.016V18.632H53.4573V13.016H52.9573ZM52.9573 18.632C52.9573 18.9304 52.85 19.1877 52.6225 19.4152L52.9761 19.7688C53.2926 19.4523 53.4573 19.0696 53.4573 18.632H52.9573ZM52.6225 19.4152C52.395 19.6427 52.1377 19.75 51.8393 19.75V20.25C52.2769 20.25 52.6595 20.0853 52.9761 19.7688L52.6225 19.4152ZM51.8393 19.75H49.7753V20.25H51.8393V19.75ZM49.7753 19.75C49.4769 19.75 49.2195 19.6427 48.9921 19.4152L48.6385 19.7688C48.955 20.0853 49.3377 20.25 49.7753 20.25V19.75ZM48.9921 19.4152C48.7646 19.1877 48.6573 18.9304 48.6573 18.632H48.1573C48.1573 19.0696 48.322 19.4523 48.6385 19.7688L48.9921 19.4152ZM48.6573 18.632V3.848H48.1573V18.632H48.6573ZM48.6573 3.848C48.6573 3.54958 48.7646 3.29226 48.9921 3.06478L48.6385 2.71122C48.322 3.02774 48.1573 3.41042 48.1573 3.848H48.6573ZM48.992 3.06478C49.2195 2.83729 49.4768 2.73 49.7753 2.73V2.23C49.3377 2.23 48.955 2.3947 48.6385 2.71122L48.992 3.06478ZM49.7753 2.73H51.8393V2.23H49.7753V2.73ZM51.8393 2.73C52.1377 2.73 52.395 2.83729 52.6225 3.06478L52.9761 2.71122C52.6595 2.3947 52.2768 2.23 51.8393 2.23V2.73ZM52.6225 3.06478C52.85 3.29226 52.9573 3.54958 52.9573 3.848H53.4573C53.4573 3.41042 53.2926 3.02774 52.9761 2.71122L52.6225 3.06478ZM52.9573 3.848V8.984H53.4573V3.848H52.9573ZM52.9573 8.984C52.9573 9.09454 52.9851 9.22336 53.0845 9.32278C53.1839 9.4222 53.3127 9.45 53.4233 9.45V8.95C53.4074 8.95 53.4036 8.94792 53.4078 8.94933C53.4133 8.95114 53.4255 8.95668 53.4381 8.96922C53.4506 8.98176 53.4561 8.99402 53.4579 8.99944C53.4593 9.00366 53.4573 8.99991 53.4573 8.984H52.9573ZM53.4233 9.45H57.3353V8.95H53.4233V9.45ZM57.3353 9.45C57.4459 9.45 57.5724 9.41752 57.6661 9.31209C57.7549 9.21227 57.7773 9.08776 57.7773 8.984H57.2773C57.2773 9.00229 57.2752 9.00891 57.2756 9.00748C57.2762 9.00521 57.2802 8.9936 57.2924 8.97991C57.3052 8.96558 57.32 8.95675 57.3315 8.95242C57.3416 8.94864 57.3445 8.95 57.3353 8.95V9.45ZM57.7773 8.984V3.848H57.2773V8.984H57.7773ZM57.7773 3.848C57.7773 3.54958 57.8846 3.29226 58.1121 3.06478L57.7585 2.71122C57.442 3.02774 57.2773 3.41042 57.2773 3.848H57.7773ZM58.1121 3.06478C58.3395 2.83729 58.5969 2.73 58.8953 2.73V2.23C58.4577 2.23 58.075 2.3947 57.7585 2.71122L58.1121 3.06478ZM58.8953 2.73H60.9593V2.23H58.8953V2.73ZM73.6693 12.848L73.4253 12.9022L73.4281 12.9148L73.4322 12.9271L73.6693 12.848ZM72.2773 6.584H72.0273V6.61144L72.0333 6.63823L72.2773 6.584ZM72.2293 6.584L72.4734 6.63823L72.4793 6.61144V6.584H72.2293ZM70.8373 12.848L71.0745 12.9271L71.0786 12.9148L71.0814 12.9022L70.8373 12.848ZM70.8613 12.992L70.6533 13.1307L70.6811 13.1723L70.7227 13.2L70.8613 12.992ZM75.2293 3.776L75.4678 3.70085L75.4665 3.69694L75.2293 3.776ZM79.9333 18.704L80.1728 18.6322L80.1718 18.6289L79.9333 18.704ZM79.7653 19.592L79.5666 19.44L79.5611 19.4478L79.7653 19.592ZM75.5413 19.64L75.38 19.8315L75.3913 19.84L75.5413 19.64ZM74.9653 18.68L75.2101 18.629L75.2095 18.6261L74.9653 18.68ZM74.5573 16.832L74.8016 16.7781L74.7999 16.7714L74.5573 16.832ZM69.9493 16.832L70.1935 16.8859L70.196 16.8745L70.1974 16.863L69.9493 16.832ZM69.5413 18.68L69.2972 18.6261L69.2966 18.629L69.5413 18.68ZM68.9413 19.64L69.0963 19.8362L69.0975 19.8352L68.9413 19.64ZM64.8133 19.592L64.6089 19.7363L64.6147 19.7439L64.8133 19.592ZM64.6693 18.704L64.4309 18.6289L64.4299 18.6322L64.6693 18.704ZM69.3733 3.776L69.6118 3.85115L69.6133 3.846L69.3733 3.776ZM70.0213 2.84L69.876 2.63651L69.8713 2.64L70.0213 2.84ZM74.5333 2.84L74.3833 3.04005L74.388 3.04343L74.5333 2.84ZM71.0053 13.29H73.5013V12.79H71.0053V13.29ZM73.5013 13.29C73.6112 13.29 73.7162 13.2507 73.7981 13.1688L73.4446 12.8152C73.4513 12.8085 73.4615 12.8011 73.4745 12.7959C73.4872 12.7908 73.4972 12.79 73.5013 12.79V13.29ZM73.7981 13.1688C73.8864 13.0805 73.9628 12.9377 73.9065 12.7689L73.4322 12.9271C73.4231 12.8997 73.4231 12.8683 73.4322 12.8409C73.4399 12.8178 73.4501 12.8097 73.4446 12.8152L73.7981 13.1688ZM73.9134 12.7938L72.5214 6.52977L72.0333 6.63823L73.4253 12.9022L73.9134 12.7938ZM72.5273 6.584C72.5273 6.53746 72.5155 6.45664 72.4481 6.38922C72.3807 6.3218 72.2999 6.31 72.2533 6.31V6.81C72.2228 6.81 72.154 6.8022 72.0946 6.74278C72.0351 6.68336 72.0273 6.61454 72.0273 6.584H72.5273ZM72.2533 6.31C72.2068 6.31 72.126 6.3218 72.0586 6.38922C71.9911 6.45664 71.9793 6.53746 71.9793 6.584H72.4793C72.4793 6.61454 72.4715 6.68336 72.4121 6.74278C72.3527 6.8022 72.2839 6.81 72.2533 6.81V6.31ZM71.9853 6.52977L70.5933 12.7938L71.0814 12.9022L72.4734 6.63823L71.9853 6.52977ZM70.6002 12.7689C70.5561 12.901 70.5853 13.0287 70.6533 13.1307L71.0693 12.8533C71.0694 12.8534 71.0751 12.8621 71.0779 12.8789C71.0809 12.8967 71.0789 12.914 71.0745 12.9271L70.6002 12.7689ZM70.7227 13.2C70.8033 13.2538 70.8988 13.29 71.0053 13.29V12.79C71.0073 12.79 71.009 12.7902 71.0104 12.7904C71.0118 12.7906 71.0125 12.7909 71.0124 12.7908C71.0122 12.7908 71.0081 12.7894 71 12.784L70.7227 13.2ZM74.9909 3.85113L79.6949 18.7791L80.1718 18.6289L75.4678 3.70086L74.9909 3.85113ZM79.6939 18.7758C79.7662 19.0168 79.7275 19.23 79.5667 19.4401L79.9639 19.7439C80.2192 19.41 80.2925 19.0312 80.1728 18.6322L79.6939 18.7758ZM79.5611 19.4478C79.4165 19.6527 79.229 19.75 78.9733 19.75V20.25C79.3897 20.25 79.7302 20.0753 79.9696 19.7362L79.5611 19.4478ZM78.9733 19.75H76.6213V20.25H78.9733V19.75ZM76.6213 19.75C76.2754 19.75 75.9681 19.6475 75.6913 19.44L75.3913 19.84C75.7546 20.1125 76.1672 20.25 76.6213 20.25V19.75ZM75.7024 19.4488C75.4406 19.2283 75.2785 18.9574 75.2101 18.629L74.7206 18.731C74.8122 19.1706 75.0341 19.5397 75.3803 19.8312L75.7024 19.4488ZM75.2095 18.6261L74.8015 16.7781L74.3132 16.8859L74.7212 18.7339L75.2095 18.6261ZM74.7999 16.7714C74.7744 16.6697 74.7232 16.5677 74.6295 16.4928C74.5351 16.4172 74.4236 16.39 74.3173 16.39V16.89C74.3287 16.89 74.3324 16.8914 74.3308 16.8909C74.3286 16.8903 74.3232 16.8881 74.3172 16.8832C74.3144 16.881 74.3122 16.8788 74.3106 16.8769C74.309 16.8751 74.3084 16.8739 74.3084 16.874C74.3085 16.8742 74.3115 16.8794 74.3148 16.8926L74.7999 16.7714ZM74.3173 16.39H70.2133V16.89H74.3173V16.39ZM70.2133 16.39C70.1042 16.39 69.9829 16.4112 69.8803 16.4858C69.7701 16.566 69.7161 16.6822 69.7013 16.801L70.1974 16.863C70.1982 16.8564 70.1989 16.8593 70.1947 16.8671C70.1926 16.8709 70.1896 16.8753 70.1859 16.8796C70.1821 16.884 70.1781 16.8875 70.1744 16.8902C70.1669 16.8956 70.1635 16.8956 70.1693 16.8941C70.1756 16.8925 70.1894 16.89 70.2133 16.89V16.39ZM69.7052 16.7781L69.2972 18.6261L69.7855 18.7339L70.1935 16.8859L69.7052 16.7781ZM69.2966 18.629C69.229 18.9534 69.062 19.2233 68.7852 19.4448L69.0975 19.8352C69.4607 19.5447 69.6937 19.1746 69.7861 18.731L69.2966 18.629ZM68.7864 19.4438C68.5281 19.6477 68.2311 19.75 67.8853 19.75V20.25C68.3396 20.25 68.7466 20.1123 69.0962 19.8362L68.7864 19.4438ZM67.8853 19.75H65.6293V20.25H67.8853V19.75ZM65.6293 19.75C65.3729 19.75 65.1737 19.6517 65.0119 19.4401L64.6147 19.7439C64.869 20.0763 65.2137 20.25 65.6293 20.25V19.75ZM65.0176 19.4478C64.8701 19.2389 64.8348 19.0225 64.9088 18.7758L64.4299 18.6322C64.3119 19.0255 64.3726 19.4011 64.6091 19.7362L65.0176 19.4478ZM64.9078 18.7791L69.6118 3.85113L69.1349 3.70086L64.4309 18.6289L64.9078 18.7791ZM69.6133 3.846C69.7102 3.51393 69.8946 3.24754 70.1713 3.04L69.8713 2.64C69.5081 2.91245 69.2605 3.27007 69.1333 3.706L69.6133 3.846ZM70.1666 3.04343C70.4599 2.83396 70.785 2.73 71.1493 2.73V2.23C70.6816 2.23 70.2548 2.36604 69.876 2.63657L70.1666 3.04343ZM71.1493 2.73H73.4533V2.23H71.1493V2.73ZM73.4533 2.73C73.7992 2.73 74.1066 2.83245 74.3833 3.04L74.6833 2.64C74.3201 2.36754 73.9074 2.23 73.4533 2.23V2.73ZM74.388 3.04343C74.682 3.25339 74.8812 3.52225 74.9922 3.85506L75.4665 3.69694C75.3214 3.26175 75.0567 2.90661 74.6786 2.63657L74.388 3.04343ZM89.9601 9.8L90.1233 9.98935L90.1238 9.98892L89.9601 9.8ZM86.9361 5.912L86.9007 5.66451L86.8912 5.66587L86.8819 5.66795L86.9361 5.912ZM94.2321 15.2L94.4673 15.1152L94.4668 15.1138L94.2321 15.2ZM95.5041 18.728L95.7401 18.6454L95.7393 18.6432L95.5041 18.728ZM95.3841 19.616L95.5842 19.7661L95.5883 19.7602L95.3841 19.616ZM91.2801 19.64L91.4254 19.4366L91.4254 19.4366L91.2801 19.64ZM90.6081 18.704L90.8482 18.634L90.8459 18.627L90.6081 18.704ZM89.5521 15.44L89.3136 15.515L89.3142 15.517L89.5521 15.44ZM88.8801 14.24L88.7147 14.4275L88.7147 14.4275L88.8801 14.24ZM86.3121 19.592L86.4889 19.7688L86.4889 19.7688L86.3121 19.592ZM82.4481 19.592L82.2713 19.7688L82.2713 19.7688L82.4481 19.592ZM82.4001 2.96L82.2089 2.79896L82.208 2.79995L82.4001 2.96ZM83.3601 2.456L83.3808 2.70515L83.3829 2.70495L83.3601 2.456ZM94.5441 10.448L94.3414 10.3016L94.3396 10.3041L94.5441 10.448ZM92.1441 12.296V12.546H92.189L92.231 12.5304L92.1441 12.296ZM92.1441 12.368L92.2673 12.1505L92.21 12.118H92.1441V12.368ZM93.3201 13.4L93.1182 13.5475L93.1219 13.5524L93.3201 13.4ZM88.0401 10.65C88.8959 10.65 89.6007 10.4399 90.1233 9.98935L89.7969 9.61065C89.3915 9.96013 88.8163 10.15 88.0401 10.15V10.65ZM90.1238 9.98892C90.6649 9.51995 90.9301 8.88769 90.9301 8.12H90.4301C90.4301 8.76031 90.2152 9.24805 89.7964 9.61108L90.1238 9.98892ZM90.9301 8.12C90.9301 7.31113 90.6942 6.66189 90.1835 6.22079C89.6798 5.78575 88.9504 5.59 88.0401 5.59V6.09C88.8898 6.09 89.4804 6.27425 89.8567 6.5992C90.2259 6.91811 90.4301 7.40887 90.4301 8.12H90.9301ZM88.0401 5.59C87.6303 5.59 87.2503 5.61458 86.9007 5.66451L86.9714 6.15949C87.2939 6.11342 87.6499 6.09 88.0401 6.09V5.59ZM86.8819 5.66795C86.7715 5.69247 86.6614 5.74488 86.5806 5.84369C86.4992 5.94317 86.4701 6.062 86.4701 6.176H86.9701C86.9701 6.1606 86.972 6.15363 86.9724 6.1526C86.9725 6.1522 86.9713 6.15575 86.9676 6.16031C86.9639 6.1648 86.9612 6.16603 86.963 6.16504C86.9653 6.16374 86.9734 6.1598 86.9903 6.15605L86.8819 5.66795ZM86.4701 6.176V10.184H86.9701V6.176H86.4701ZM86.4701 10.184C86.4701 10.2945 86.4979 10.4234 86.5973 10.5228C86.6967 10.6222 86.8255 10.65 86.9361 10.65V10.15C86.9202 10.15 86.9164 10.1479 86.9206 10.1493C86.9261 10.1511 86.9383 10.1567 86.9509 10.1692C86.9634 10.1818 86.9689 10.194 86.9708 10.1994C86.9722 10.2037 86.9701 10.1999 86.9701 10.184H86.4701ZM86.9361 10.65H88.0401V10.15H86.9361V10.65ZM93.9969 15.2848L95.2689 18.8128L95.7393 18.6432L94.4673 15.1152L93.9969 15.2848ZM95.2681 18.8106C95.354 19.056 95.3242 19.2673 95.1798 19.4718L95.5883 19.7602C95.8279 19.4207 95.8782 19.04 95.7401 18.6454L95.2681 18.8106ZM95.1841 19.466C95.042 19.6555 94.854 19.75 94.5921 19.75V20.25C95.0022 20.25 95.3422 20.0885 95.5841 19.766L95.1841 19.466ZM94.5921 19.75H92.4081V20.25H94.5921V19.75ZM92.4081 19.75C92.0438 19.75 91.7187 19.646 91.4254 19.4366L91.1348 19.8434C91.5135 20.114 91.9404 20.25 92.4081 20.25V19.75ZM91.4254 19.4366C91.1334 19.228 90.9438 18.9623 90.8481 18.634L90.3681 18.774C90.4963 19.2137 90.7547 19.572 91.1348 19.8434L91.4254 19.4366ZM90.8459 18.627L89.7899 15.363L89.3142 15.517L90.3702 18.781L90.8459 18.627ZM89.7906 15.365C89.6085 14.7858 89.3667 14.3359 89.0455 14.0525L88.7147 14.4275C88.9375 14.6241 89.1436 14.9742 89.3136 15.515L89.7906 15.365ZM89.0455 14.0525C88.7178 13.7634 88.2941 13.63 87.8001 13.63V14.13C88.2021 14.13 88.4984 14.2366 88.7147 14.4275L89.0455 14.0525ZM87.8001 13.63H86.9361V14.13H87.8001V13.63ZM86.9361 13.63C86.8255 13.63 86.6967 13.6578 86.5973 13.7572C86.4979 13.8566 86.4701 13.9855 86.4701 14.096H86.9701C86.9701 14.0801 86.9722 14.0763 86.9708 14.0806C86.9689 14.086 86.9634 14.0982 86.9509 14.1108C86.9383 14.1233 86.9261 14.1289 86.9206 14.1307C86.9164 14.1321 86.9202 14.13 86.9361 14.13V13.63ZM86.4701 14.096V18.632H86.9701V14.096H86.4701ZM86.4701 18.632C86.4701 18.9304 86.3628 19.1877 86.1353 19.4152L86.4889 19.7688C86.8054 19.4523 86.9701 19.0696 86.9701 18.632H86.4701ZM86.1353 19.4152C85.9078 19.6427 85.6505 19.75 85.3521 19.75V20.25C85.7897 20.25 86.1723 20.0853 86.4889 19.7688L86.1353 19.4152ZM85.3521 19.75H83.4081V20.25H85.3521V19.75ZM83.4081 19.75C83.1097 19.75 82.8523 19.6427 82.6249 19.4152L82.2713 19.7688C82.5878 20.0853 82.9705 20.25 83.4081 20.25V19.75ZM82.6249 19.4152C82.3974 19.1877 82.2901 18.9304 82.2901 18.632H81.7901C81.7901 19.0696 81.9548 19.4523 82.2713 19.7688L82.6249 19.4152ZM82.2901 18.632V3.968H81.7901V18.632H82.2901ZM82.2901 3.968C82.2901 3.64093 82.3906 3.36194 82.5921 3.12005L82.208 2.79995C81.9296 3.13406 81.7901 3.52706 81.7901 3.968H82.2901ZM82.5913 3.12103C82.806 2.86612 83.0654 2.73142 83.3808 2.70514L83.3393 2.20686C82.8868 2.24458 82.5062 2.44588 82.2089 2.79897L82.5913 3.12103ZM83.3829 2.70495C84.9427 2.56171 86.5751 2.49 88.2801 2.49V1.99C86.5611 1.99 84.9134 2.06229 83.3372 2.20705L83.3829 2.70495ZM88.2801 2.49C90.656 2.49 92.3924 2.93676 93.5301 3.79C94.6542 4.63309 95.2301 5.901 95.2301 7.64H95.7301C95.7301 5.779 95.106 4.34691 93.8301 3.39C92.5677 2.44324 90.7041 1.99 88.2801 1.99V2.49ZM95.2301 7.64C95.2301 8.59233 94.9365 9.47764 94.3414 10.3016L94.7468 10.5944C95.3997 9.69036 95.7301 8.70366 95.7301 7.64H95.2301ZM94.3396 10.3041C93.7608 11.1267 93.0018 11.7112 92.0571 12.0616L92.231 12.5304C93.2704 12.1448 94.1114 11.4973 94.7485 10.5919L94.3396 10.3041ZM92.1441 12.046C92.0976 12.046 92.0167 12.0578 91.9493 12.1252C91.8819 12.1926 91.8701 12.2735 91.8701 12.32H92.3701C92.3701 12.3505 92.3623 12.4194 92.3029 12.4788C92.2434 12.5382 92.1746 12.546 92.1441 12.546V12.046ZM91.8701 12.32C91.8701 12.3488 91.8724 12.4076 91.9025 12.4678C91.9193 12.5015 91.948 12.5417 91.9949 12.573C92.0434 12.6053 92.0963 12.618 92.1441 12.618V12.118C92.1838 12.118 92.2298 12.1287 92.2723 12.157C92.3132 12.1843 92.3369 12.2185 92.3497 12.2442C92.362 12.2689 92.3665 12.2895 92.3682 12.2999C92.37 12.3109 92.3701 12.3183 92.3701 12.32H91.8701ZM92.0208 12.5855C92.4722 12.8413 92.8366 13.1621 93.1182 13.5475L93.5219 13.2525C93.1955 12.8059 92.776 12.4387 92.2673 12.1505L92.0208 12.5855ZM93.1219 13.5524C93.4201 13.9401 93.7136 14.5137 93.9974 15.2862L94.4668 15.1138C94.1745 14.3183 93.8601 13.6919 93.5182 13.2476L93.1219 13.5524ZM114.931 14.826L114.736 14.6703L114.734 14.6725L114.931 14.826ZM114.931 6.09L114.74 6.25081L114.742 6.25301L114.931 6.09ZM110.667 4.868L110.626 4.6214L110.616 4.62304L110.607 4.62546L110.667 4.868ZM110.667 16.152L110.607 16.3945L110.616 16.397L110.626 16.3986L110.667 16.152ZM118.389 3.282L118.215 3.46145L118.216 3.46235L118.389 3.282ZM118.363 17.686L118.188 17.5075L118.187 17.5083L118.363 17.686ZM106.845 20.052L106.869 19.8031L106.866 19.8029L106.845 20.052ZM105.805 19.506L105.614 19.667L105.614 19.667L105.805 19.506ZM105.805 1.514L105.614 1.35297L105.614 1.35297L105.805 1.514ZM106.845 0.967999L106.866 1.21715L106.869 1.2169L106.845 0.967999ZM111.629 16.48C113.159 16.48 114.342 15.991 115.129 14.9795L114.734 14.6725C114.065 15.533 113.046 15.98 111.629 15.98V16.48ZM115.127 14.9817C115.926 13.9785 116.299 12.3825 116.299 10.25H115.799C115.799 12.3469 115.427 13.8015 114.736 14.6703L115.127 14.9817ZM116.299 10.25C116.299 8.32049 115.924 6.86082 115.121 5.92699L114.742 6.25301C115.429 7.05251 115.799 8.36618 115.799 10.25H116.299ZM115.123 5.9292C114.334 4.98994 113.153 4.54 111.629 4.54V5.04C113.053 5.04 114.073 5.45672 114.74 6.2508L115.123 5.9292ZM111.629 4.54C111.287 4.54 110.952 4.56705 110.626 4.6214L110.708 5.1146C111.006 5.06495 111.313 5.04 111.629 5.04V4.54ZM110.607 4.62546C110.5 4.65223 110.394 4.70582 110.316 4.80283C110.238 4.90061 110.209 5.01639 110.209 5.128H110.709C110.709 5.11398 110.711 5.10785 110.711 5.10727C110.711 5.10702 110.711 5.10792 110.71 5.10958C110.709 5.11127 110.708 5.11322 110.706 5.11517C110.703 5.11948 110.7 5.12069 110.702 5.11969C110.704 5.11841 110.712 5.11451 110.728 5.11054L110.607 4.62546ZM110.209 5.128V15.866H110.709V5.128H110.209ZM110.209 15.866C110.209 15.9799 110.235 16.0992 110.309 16.2015C110.385 16.3062 110.493 16.3661 110.607 16.3945L110.728 15.9095C110.714 15.9061 110.709 15.9029 110.709 15.9026C110.708 15.9025 110.709 15.9029 110.71 15.9039C110.711 15.9049 110.712 15.9062 110.713 15.9075C110.718 15.9144 110.709 15.9081 110.709 15.866H110.209ZM110.626 16.3986C110.952 16.453 111.287 16.48 111.629 16.48V15.98C111.313 15.98 111.006 15.955 110.708 15.9054L110.626 16.3986ZM111.109 1.01C114.184 1.01 116.541 1.83745 118.215 3.46145L118.563 3.10255C116.771 1.36388 114.274 0.51 111.109 0.51V1.01ZM118.216 3.46235C119.889 5.06834 120.739 7.31927 120.739 10.25H121.239C121.239 7.21806 120.356 4.82366 118.562 3.10165L118.216 3.46235ZM120.739 10.25C120.739 13.4467 119.877 15.8522 118.188 17.5075L118.538 17.8645C120.351 16.0878 121.239 13.536 121.239 10.25H120.739ZM118.187 17.5083C116.513 19.1663 114.165 20.01 111.109 20.01V20.51C114.259 20.51 116.747 19.6377 118.539 17.8637L118.187 17.5083ZM111.109 20.01C109.748 20.01 108.335 19.9411 106.869 19.8031L106.822 20.3009C108.302 20.4402 109.731 20.51 111.109 20.51V20.01ZM106.866 19.8029C106.519 19.7739 106.232 19.6252 105.996 19.345L105.614 19.667C105.933 20.0455 106.34 20.2608 106.824 20.3011L106.866 19.8029ZM105.996 19.345C105.756 19.059 105.639 18.7429 105.639 18.388H105.139C105.139 18.8651 105.3 19.2943 105.614 19.667L105.996 19.345ZM105.639 18.388V2.632H105.139V18.388H105.639ZM105.639 2.632C105.639 2.27713 105.756 1.96101 105.996 1.67503L105.614 1.35297C105.3 1.72566 105.139 2.15487 105.139 2.632H105.639ZM105.996 1.67503C106.232 1.39479 106.519 1.24609 106.866 1.21714L106.824 0.718862C106.34 0.759244 105.933 0.974546 105.614 1.35297L105.996 1.67503ZM106.869 1.2169C108.335 1.07891 109.748 1.01 111.109 1.01V0.51C109.731 0.51 108.302 0.579758 106.822 0.719099L106.869 1.2169ZM135.138 8.742L135.314 8.56522L135.314 8.56522L135.138 8.742ZM135.138 11.758L135.314 11.9348L135.314 11.9348L135.138 11.758ZM135.658 16.282L135.481 16.4588L135.481 16.4588L135.658 16.282ZM135.658 19.558L135.481 19.3812L135.481 19.3812L135.658 19.558ZM124.062 19.558L123.885 19.7348L123.885 19.7348L124.062 19.558ZM124.062 1.462L123.885 1.28522L123.885 1.28522L124.062 1.462ZM134.618 1.27C134.947 1.27 135.231 1.38863 135.481 1.63878L135.834 1.28522C135.495 0.946037 135.086 0.77 134.618 0.77V1.27ZM135.481 1.63878C135.731 1.88892 135.85 2.17291 135.85 2.502H136.35C136.35 2.03376 136.174 1.62441 135.834 1.28522L135.481 1.63878ZM135.85 2.502V3.698H136.35V2.502H135.85ZM135.85 3.698C135.85 4.02709 135.731 4.31107 135.481 4.56122L135.834 4.91478C136.174 4.57559 136.35 4.16624 136.35 3.698H135.85ZM135.481 4.56122C135.231 4.81137 134.947 4.93 134.618 4.93V5.43C135.086 5.43 135.495 5.25396 135.834 4.91478L135.481 4.56122ZM134.618 4.93H129.054V5.43H134.618V4.93ZM129.054 4.93C128.944 4.93 128.815 4.95375 128.712 5.04515C128.604 5.14153 128.57 5.272 128.57 5.388H129.07C129.07 5.37615 129.071 5.37671 129.068 5.38478C129.065 5.39432 129.057 5.40745 129.044 5.41885C129.038 5.42405 129.033 5.42759 129.029 5.42984C129.025 5.43203 129.022 5.43274 129.022 5.4327C129.023 5.43245 129.032 5.43 129.054 5.43V4.93ZM128.57 5.388V8.066H129.07V5.388H128.57ZM128.57 8.066C128.57 8.18254 128.599 8.31586 128.701 8.41828C128.804 8.5207 128.937 8.55 129.054 8.55V8.05C129.035 8.05 129.028 8.04755 129.03 8.0482C129.032 8.04861 129.035 8.04989 129.04 8.05272C129.045 8.0556 129.05 8.05958 129.055 8.06472C129.06 8.06987 129.064 8.07517 129.067 8.07997C129.07 8.08468 129.071 8.08808 129.071 8.08932C129.072 8.09128 129.07 8.08491 129.07 8.066H128.57ZM129.054 8.55H134.098V8.05H129.054V8.55ZM134.098 8.55C134.427 8.55 134.711 8.66863 134.961 8.91878L135.314 8.56522C134.975 8.22604 134.566 8.05 134.098 8.05V8.55ZM134.961 8.91878C135.211 9.16892 135.33 9.45291 135.33 9.782H135.83C135.83 9.31376 135.654 8.90441 135.314 8.56522L134.961 8.91878ZM135.33 9.782V10.718H135.83V9.782H135.33ZM135.33 10.718C135.33 11.0471 135.211 11.3311 134.961 11.5812L135.314 11.9348C135.654 11.5956 135.83 11.1862 135.83 10.718H135.33ZM134.961 11.5812C134.711 11.8314 134.427 11.95 134.098 11.95V12.45C134.566 12.45 134.975 12.274 135.314 11.9348L134.961 11.5812ZM134.098 11.95H129.054V12.45H134.098V11.95ZM129.054 11.95C128.944 11.95 128.815 11.9738 128.712 12.0651C128.604 12.1615 128.57 12.292 128.57 12.408H129.07C129.07 12.3961 129.071 12.3967 129.068 12.4048C129.065 12.4143 129.057 12.4274 129.044 12.4389C129.038 12.4441 129.033 12.4476 129.029 12.4498C129.025 12.452 129.022 12.4527 129.022 12.4527C129.023 12.4525 129.032 12.45 129.054 12.45V11.95ZM128.57 12.408V15.606H129.07V12.408H128.57ZM128.57 15.606C128.57 15.7225 128.599 15.8559 128.701 15.9583C128.804 16.0607 128.937 16.09 129.054 16.09V15.59C129.035 15.59 129.028 15.5875 129.03 15.5882C129.032 15.5886 129.035 15.5899 129.04 15.5927C129.045 15.5956 129.05 15.5996 129.055 15.6047C129.06 15.6099 129.064 15.6152 129.067 15.62C129.07 15.6247 129.071 15.6281 129.071 15.6293C129.072 15.6313 129.07 15.6249 129.07 15.606H128.57ZM129.054 16.09H134.618V15.59H129.054V16.09ZM134.618 16.09C134.947 16.09 135.231 16.2086 135.481 16.4588L135.834 16.1052C135.495 15.766 135.086 15.59 134.618 15.59V16.09ZM135.481 16.4588C135.731 16.7089 135.85 16.9929 135.85 17.322H136.35C136.35 16.8538 136.174 16.4444 135.834 16.1052L135.481 16.4588ZM135.85 17.322V18.518H136.35V17.322H135.85ZM135.85 18.518C135.85 18.8471 135.731 19.1311 135.481 19.3812L135.834 19.7348C136.174 19.3956 136.35 18.9862 136.35 18.518H135.85ZM135.481 19.3812C135.231 19.6314 134.947 19.75 134.618 19.75V20.25C135.086 20.25 135.495 20.074 135.834 19.7348L135.481 19.3812ZM134.618 19.75H125.102V20.25H134.618V19.75ZM125.102 19.75C124.773 19.75 124.489 19.6314 124.238 19.3812L123.885 19.7348C124.224 20.074 124.633 20.25 125.102 20.25V19.75ZM124.238 19.3812C123.988 19.1311 123.87 18.8471 123.87 18.518H123.37C123.37 18.9862 123.546 19.3956 123.885 19.7348L124.238 19.3812ZM123.87 18.518V2.502H123.37V18.518H123.87ZM123.87 2.502C123.87 2.17291 123.988 1.88892 124.238 1.63878L123.885 1.28522C123.546 1.62441 123.37 2.03376 123.37 2.502H123.87ZM124.238 1.63878C124.489 1.38863 124.773 1.27 125.102 1.27V0.77C124.633 0.77 124.224 0.946037 123.885 1.28522L124.238 1.63878ZM125.102 1.27H134.618V0.77H125.102V1.27ZM154.493 1.462L154.289 1.60627L154.295 1.61386L154.493 1.462ZM154.675 2.424L154.914 2.49914L154.915 2.49584L154.675 2.424ZM149.579 18.596L149.816 18.6751L149.818 18.6711L149.579 18.596ZM148.825 19.61L148.68 19.4065L148.675 19.41L148.825 19.61ZM143.937 19.61L143.787 19.8101L143.792 19.8134L143.937 19.61ZM143.235 18.596L143.475 18.526L143.474 18.5209L143.235 18.596ZM138.139 2.424L137.9 2.49584L137.901 2.49913L138.139 2.424ZM138.295 1.462L138.097 1.31002L138.091 1.31783L138.295 1.462ZM142.871 1.436L142.71 1.62753L142.721 1.636L142.871 1.436ZM143.521 2.45L143.276 2.50099L143.277 2.50445L143.521 2.45ZM146.329 15.034H146.579V15.0064L146.573 14.9796L146.329 15.034ZM146.407 15.034L146.164 14.9767L146.157 15.005V15.034H146.407ZM149.371 2.45L149.129 2.38936L149.128 2.39268L149.371 2.45ZM150.021 1.436L150.176 1.63222L150.177 1.63122L150.021 1.436ZM153.635 1.27C153.919 1.27 154.128 1.37859 154.289 1.60617L154.698 1.31783C154.442 0.956073 154.08 0.77 153.635 0.77V1.27ZM154.295 1.61386C154.473 1.84671 154.516 2.08454 154.436 2.35216L154.915 2.49584C155.042 2.07012 154.964 1.66662 154.692 1.31014L154.295 1.61386ZM154.437 2.34886L149.341 18.5209L149.818 18.6711L154.914 2.49913L154.437 2.34886ZM149.342 18.5169C149.22 18.8817 149.002 19.1766 148.68 19.4066L148.971 19.8134C149.377 19.5234 149.661 19.1423 149.816 18.6751L149.342 18.5169ZM148.675 19.41C148.372 19.6375 148.034 19.75 147.655 19.75V20.25C148.143 20.25 148.585 20.1025 148.975 19.81L148.675 19.41ZM147.655 19.75H145.159V20.25H147.655V19.75ZM145.159 19.75C144.76 19.75 144.404 19.636 144.083 19.4066L143.792 19.8134C144.199 20.104 144.657 20.25 145.159 20.25V19.75ZM144.087 19.41C143.784 19.1825 143.581 18.8901 143.475 18.526L142.995 18.666C143.132 19.1339 143.397 19.5175 143.787 19.81L144.087 19.41ZM143.474 18.5209L138.378 2.34886L137.901 2.49913L142.997 18.6711L143.474 18.5209ZM138.379 2.35216C138.297 2.07879 138.336 1.83782 138.499 1.60617L138.091 1.31783C137.839 1.67552 137.774 2.07588 137.9 2.49584L138.379 2.35216ZM138.494 1.61386C138.673 1.37966 138.895 1.27 139.179 1.27V0.77C138.736 0.77 138.368 0.955002 138.097 1.31014L138.494 1.61386ZM139.179 1.27H141.727V0.77H139.179V1.27ZM141.727 1.27C142.102 1.27 142.426 1.38812 142.71 1.62723L143.032 1.24477C142.658 0.929213 142.219 0.77 141.727 0.77V1.27ZM142.721 1.636C143.02 1.8603 143.203 2.14581 143.277 2.50099L143.766 2.39901C143.667 1.92219 143.416 1.5317 143.021 1.236L142.721 1.636ZM143.277 2.50445L146.085 15.0884L146.573 14.9796L143.765 2.39555L143.277 2.50445ZM146.079 15.034C146.079 15.0821 146.092 15.1353 146.124 15.184C146.156 15.2312 146.196 15.2601 146.23 15.2771C146.291 15.3076 146.351 15.31 146.381 15.31V14.81C146.382 14.81 146.389 14.81 146.4 14.8118C146.409 14.8134 146.43 14.8177 146.454 14.8299C146.479 14.8426 146.513 14.866 146.541 14.9067C146.569 14.9489 146.579 14.9946 146.579 15.034H146.079ZM146.381 15.31C146.428 15.31 146.51 15.298 146.578 15.2303C146.645 15.1625 146.657 15.0812 146.657 15.034H146.157C146.157 15.0041 146.165 14.9358 146.224 14.8767C146.283 14.8176 146.351 14.81 146.381 14.81V15.31ZM146.651 15.0913L149.615 2.50732L149.128 2.39268L146.164 14.9767L146.651 15.0913ZM149.614 2.51063C149.705 2.147 149.891 1.85715 150.176 1.63222L149.866 1.23978C149.493 1.53484 149.246 1.92099 149.129 2.38937L149.614 2.51063ZM150.177 1.63122C150.481 1.3884 150.816 1.27 151.191 1.27V0.77C150.7 0.77 150.255 0.928929 149.865 1.24078L150.177 1.63122ZM151.191 1.27H153.635V0.77H151.191V1.27ZM168.476 8.742L168.652 8.56522L168.652 8.56522L168.476 8.742ZM168.476 11.758L168.652 11.9348L168.652 11.9348L168.476 11.758ZM168.996 16.282L168.819 16.4588L168.819 16.4588L168.996 16.282ZM168.996 19.558L168.819 19.3812L168.819 19.3812L168.996 19.558ZM157.4 19.558L157.223 19.7348L157.223 19.7348L157.4 19.558ZM157.4 1.462L157.223 1.28522L157.223 1.28522L157.4 1.462ZM167.956 1.27C168.285 1.27 168.569 1.38863 168.819 1.63878L169.172 1.28522C168.833 0.946037 168.424 0.77 167.956 0.77V1.27ZM168.819 1.63878C169.069 1.88892 169.188 2.17291 169.188 2.502H169.688C169.688 2.03376 169.512 1.62441 169.172 1.28522L168.819 1.63878ZM169.188 2.502V3.698H169.688V2.502H169.188ZM169.188 3.698C169.188 4.02709 169.069 4.31107 168.819 4.56122L169.172 4.91478C169.512 4.57559 169.688 4.16624 169.688 3.698H169.188ZM168.819 4.56122C168.569 4.81137 168.285 4.93 167.956 4.93V5.43C168.424 5.43 168.833 5.25396 169.172 4.91478L168.819 4.56122ZM167.956 4.93H162.392V5.43H167.956V4.93ZM162.392 4.93C162.282 4.93 162.153 4.95375 162.05 5.04515C161.942 5.14153 161.908 5.272 161.908 5.388H162.408C162.408 5.37615 162.409 5.37671 162.406 5.38478C162.403 5.39432 162.395 5.40745 162.382 5.41885C162.376 5.42405 162.371 5.42759 162.367 5.42984C162.363 5.43203 162.36 5.43274 162.36 5.4327C162.361 5.43245 162.37 5.43 162.392 5.43V4.93ZM161.908 5.388V8.066H162.408V5.388H161.908ZM161.908 8.066C161.908 8.18254 161.937 8.31586 162.039 8.41828C162.142 8.5207 162.275 8.55 162.392 8.55V8.05C162.373 8.05 162.366 8.04755 162.368 8.0482C162.369 8.04861 162.373 8.04989 162.378 8.05272C162.382 8.0556 162.388 8.05958 162.393 8.06472C162.398 8.06987 162.402 8.07517 162.405 8.07997C162.408 8.08468 162.409 8.08808 162.409 8.08932C162.41 8.09128 162.408 8.08491 162.408 8.066H161.908ZM162.392 8.55H167.436V8.05H162.392V8.55ZM167.436 8.55C167.765 8.55 168.049 8.66863 168.299 8.91878L168.652 8.56522C168.313 8.22604 167.904 8.05 167.436 8.05V8.55ZM168.299 8.91878C168.549 9.16892 168.668 9.45291 168.668 9.782H169.168C169.168 9.31376 168.992 8.90441 168.652 8.56522L168.299 8.91878ZM168.668 9.782V10.718H169.168V9.782H168.668ZM168.668 10.718C168.668 11.0471 168.549 11.3311 168.299 11.5812L168.652 11.9348C168.992 11.5956 169.168 11.1862 169.168 10.718H168.668ZM168.299 11.5812C168.049 11.8314 167.765 11.95 167.436 11.95V12.45C167.904 12.45 168.313 12.274 168.652 11.9348L168.299 11.5812ZM167.436 11.95H162.392V12.45H167.436V11.95ZM162.392 11.95C162.282 11.95 162.153 11.9738 162.05 12.0651C161.942 12.1615 161.908 12.292 161.908 12.408H162.408C162.408 12.3961 162.409 12.3967 162.406 12.4048C162.403 12.4143 162.395 12.4274 162.382 12.4389C162.376 12.4441 162.371 12.4476 162.367 12.4498C162.363 12.452 162.36 12.4527 162.36 12.4527C162.361 12.4525 162.37 12.45 162.392 12.45V11.95ZM161.908 12.408V15.606H162.408V12.408H161.908ZM161.908 15.606C161.908 15.7225 161.937 15.8559 162.039 15.9583C162.142 16.0607 162.275 16.09 162.392 16.09V15.59C162.373 15.59 162.366 15.5875 162.368 15.5882C162.369 15.5886 162.373 15.5899 162.378 15.5927C162.382 15.5956 162.388 15.5996 162.393 15.6047C162.398 15.6099 162.402 15.6152 162.405 15.62C162.408 15.6247 162.409 15.6281 162.409 15.6293C162.41 15.6313 162.408 15.6249 162.408 15.606H161.908ZM162.392 16.09H167.956V15.59H162.392V16.09ZM167.956 16.09C168.285 16.09 168.569 16.2086 168.819 16.4588L169.172 16.1052C168.833 15.766 168.424 15.59 167.956 15.59V16.09ZM168.819 16.4588C169.069 16.7089 169.188 16.9929 169.188 17.322H169.688C169.688 16.8538 169.512 16.4444 169.172 16.1052L168.819 16.4588ZM169.188 17.322V18.518H169.688V17.322H169.188ZM169.188 18.518C169.188 18.8471 169.069 19.1311 168.819 19.3812L169.172 19.7348C169.512 19.3956 169.688 18.9862 169.688 18.518H169.188ZM168.819 19.3812C168.569 19.6314 168.285 19.75 167.956 19.75V20.25C168.424 20.25 168.833 20.074 169.172 19.7348L168.819 19.3812ZM167.956 19.75H158.44V20.25H167.956V19.75ZM158.44 19.75C158.11 19.75 157.826 19.6314 157.576 19.3812L157.223 19.7348C157.562 20.074 157.971 20.25 158.44 20.25V19.75ZM157.576 19.3812C157.326 19.1311 157.208 18.8471 157.208 18.518H156.708C156.708 18.9862 156.884 19.3956 157.223 19.7348L157.576 19.3812ZM157.208 18.518V2.502H156.708V18.518H157.208ZM157.208 2.502C157.208 2.17291 157.326 1.88892 157.576 1.63878L157.223 1.28522C156.884 1.62441 156.708 2.03376 156.708 2.502H157.208ZM157.576 1.63878C157.826 1.38863 158.11 1.27 158.44 1.27V0.77C157.971 0.77 157.562 0.946037 157.223 1.28522L157.576 1.63878ZM158.44 1.27H167.956V0.77H158.44V1.27ZM185.537 16.152L185.714 15.9752L185.714 15.9752L185.537 16.152ZM185.537 19.558L185.714 19.7348L185.714 19.7348L185.537 19.558ZM173.421 19.558L173.244 19.7348L173.244 19.7348L173.421 19.558ZM173.421 1.462L173.244 1.28522L173.244 1.28522L173.421 1.462ZM177.867 1.462L178.044 1.28522L178.044 1.28522L177.867 1.462ZM184.497 15.96C184.826 15.96 185.11 16.0786 185.36 16.3288L185.714 15.9752C185.375 15.636 184.965 15.46 184.497 15.46V15.96ZM185.36 16.3288C185.61 16.5789 185.729 16.8629 185.729 17.192H186.229C186.229 16.7238 186.053 16.3144 185.714 15.9752L185.36 16.3288ZM185.729 17.192V18.518H186.229V17.192H185.729ZM185.729 18.518C185.729 18.8471 185.61 19.1311 185.36 19.3812L185.714 19.7348C186.053 19.3956 186.229 18.9862 186.229 18.518H185.729ZM185.36 19.3812C185.11 19.6314 184.826 19.75 184.497 19.75V20.25C184.965 20.25 185.375 20.074 185.714 19.7348L185.36 19.3812ZM184.497 19.75H174.461V20.25H184.497V19.75ZM174.461 19.75C174.132 19.75 173.848 19.6314 173.598 19.3812L173.244 19.7348C173.583 20.074 173.993 20.25 174.461 20.25V19.75ZM173.598 19.3812C173.348 19.1311 173.229 18.8471 173.229 18.518H172.729C172.729 18.9862 172.905 19.3956 173.244 19.7348L173.598 19.3812ZM173.229 18.518V2.502H172.729V18.518H173.229ZM173.229 2.502C173.229 2.17291 173.348 1.88892 173.598 1.63878L173.244 1.28522C172.905 1.62441 172.729 2.03376 172.729 2.502H173.229ZM173.598 1.63878C173.848 1.38863 174.132 1.27 174.461 1.27V0.77C173.993 0.77 173.583 0.946037 173.244 1.28522L173.598 1.63878ZM174.461 1.27H176.827V0.77H174.461V1.27ZM176.827 1.27C177.156 1.27 177.44 1.38863 177.69 1.63878L178.044 1.28522C177.705 0.946037 177.295 0.77 176.827 0.77V1.27ZM177.69 1.63878C177.94 1.88892 178.059 2.17291 178.059 2.502H178.559C178.559 2.03376 178.383 1.62441 178.044 1.28522L177.69 1.63878ZM178.059 2.502V15.476H178.559V2.502H178.059ZM178.059 15.476C178.059 15.5925 178.088 15.7259 178.191 15.8283C178.293 15.9307 178.427 15.96 178.543 15.96V15.46C178.524 15.46 178.518 15.4575 178.52 15.4582C178.521 15.4586 178.524 15.4599 178.529 15.4627C178.534 15.4656 178.539 15.4696 178.544 15.4747C178.549 15.4799 178.553 15.4852 178.556 15.49C178.559 15.4947 178.56 15.4981 178.561 15.4993C178.562 15.5013 178.559 15.4949 178.559 15.476H178.059ZM178.543 15.96H184.497V15.46H178.543V15.96ZM189.107 3.36L188.924 3.18877L188.924 3.18877L189.107 3.36ZM202.419 3.36L202.236 3.53123L202.419 3.36ZM202.419 17.66L202.236 17.4888L202.236 17.4888L202.419 17.66ZM189.107 17.66L189.289 17.4888L189.289 17.4888L189.107 17.66ZM191.743 10.51C191.743 12.351 192.059 13.7761 192.729 14.747C193.411 15.7347 194.437 16.22 195.763 16.22V15.72C194.575 15.72 193.716 15.2953 193.141 14.463C192.555 13.6139 192.243 12.309 192.243 10.51H191.743ZM195.763 16.22C197.088 16.22 198.114 15.7347 198.796 14.747C199.466 13.7761 199.783 12.351 199.783 10.51H199.283C199.283 12.309 198.971 13.6139 198.384 14.463C197.81 15.2953 196.95 15.72 195.763 15.72V16.22ZM199.783 10.51C199.783 8.66897 199.466 7.24385 198.796 6.27295C198.114 5.28531 197.088 4.8 195.763 4.8V5.3C196.95 5.3 197.81 5.72468 198.384 6.55705C198.971 7.40615 199.283 8.71103 199.283 10.51H199.783ZM195.763 4.8C194.437 4.8 193.411 5.28531 192.729 6.27295C192.059 7.24385 191.743 8.66897 191.743 10.51H192.243C192.243 8.71103 192.555 7.40615 193.141 6.55705C193.716 5.72468 194.575 5.3 195.763 5.3V4.8ZM189.289 3.53123C190.862 1.85723 193.01 1.01 195.763 1.01V0.51C192.899 0.51 190.61 1.3961 188.924 3.18877L189.289 3.53123ZM195.763 1.01C198.515 1.01 200.663 1.85723 202.236 3.53123L202.601 3.18877C200.916 1.3961 198.626 0.51 195.763 0.51V1.01ZM202.236 3.53123C203.811 5.20645 204.613 7.5221 204.613 10.51H205.113C205.113 7.43123 204.285 4.98021 202.601 3.18877L202.236 3.53123ZM204.613 10.51C204.613 13.4979 203.811 15.8135 202.236 17.4888L202.601 17.8312C204.285 16.0398 205.113 13.5888 205.113 10.51H204.613ZM202.236 17.4888C200.663 19.1628 198.515 20.01 195.763 20.01V20.51C198.626 20.51 200.916 19.6239 202.601 17.8312L202.236 17.4888ZM195.763 20.01C193.01 20.01 190.862 19.1628 189.289 17.4888L188.924 17.8312C190.61 19.6239 192.899 20.51 195.763 20.51V20.01ZM189.289 17.4888C187.714 15.8135 186.913 13.4979 186.913 10.51H186.413C186.413 13.5888 187.24 16.0398 188.924 17.8312L189.289 17.4888ZM186.913 10.51C186.913 7.5221 187.714 5.20645 189.289 3.53123L188.924 3.18877C187.24 4.98021 186.413 7.43123 186.413 10.51H186.913ZM212.763 4.738L212.722 4.4914L212.712 4.49304L212.702 4.49546L212.763 4.738ZM212.763 10.328L212.702 10.5705L212.722 10.5755L212.742 10.5771L212.763 10.328ZM220.043 12.382L220.21 12.5683L220.21 12.5682L220.043 12.382ZM212.789 14.098L212.804 13.8484L212.796 13.848H212.789V14.098ZM212.113 19.558L212.29 19.7348L212.29 19.7348L212.113 19.558ZM207.927 19.558L207.75 19.7348L207.75 19.7348L207.927 19.558ZM207.901 1.514L207.71 1.35297L207.71 1.35297L207.901 1.514ZM208.941 0.967999L208.962 1.21715L208.964 1.2169L208.941 0.967999ZM213.725 10.63C214.887 10.63 215.82 10.3619 216.488 9.78981L216.162 9.41019C215.616 9.87805 214.816 10.13 213.725 10.13V10.63ZM216.488 9.78981C217.16 9.21308 217.485 8.40081 217.485 7.39H216.985C216.985 8.28585 216.703 8.94692 216.162 9.41019L216.488 9.78981ZM217.485 7.39C217.485 6.42234 217.171 5.65833 216.511 5.14516C215.863 4.64128 214.92 4.41 213.725 4.41V4.91C214.869 4.91 215.682 5.13372 216.204 5.53984C216.714 5.93667 216.985 6.53766 216.985 7.39H217.485ZM213.725 4.41C213.382 4.41 213.048 4.43705 212.722 4.4914L212.804 4.9846C213.102 4.93495 213.409 4.91 213.725 4.91V4.41ZM212.702 4.49546C212.589 4.52388 212.481 4.58381 212.405 4.68846C212.33 4.79078 212.305 4.91011 212.305 5.024H212.805C212.805 4.98188 212.814 4.97555 212.809 4.98254C212.808 4.98384 212.807 4.98508 212.806 4.98612C212.805 4.98714 212.804 4.98752 212.804 4.98737C212.805 4.98708 212.81 4.98388 212.824 4.98054L212.702 4.49546ZM212.305 5.024V10.068H212.805V5.024H212.305ZM212.305 10.068C212.305 10.1796 212.333 10.2954 212.412 10.3932C212.489 10.4902 212.595 10.5438 212.702 10.5705L212.824 10.0855C212.808 10.0815 212.8 10.0776 212.798 10.0763C212.796 10.0753 212.799 10.0765 212.802 10.0808C212.804 10.0828 212.805 10.0847 212.806 10.0864C212.807 10.0881 212.807 10.089 212.807 10.0887C212.807 10.0881 212.805 10.082 212.805 10.068H212.305ZM212.742 10.5771C213.16 10.612 213.489 10.63 213.725 10.63V10.13C213.51 10.13 213.198 10.1134 212.784 10.0789L212.742 10.5771ZM213.205 1.01C216.129 1.01 218.277 1.53812 219.689 2.55533C221.085 3.56161 221.795 5.07151 221.795 7.13H222.295C222.295 4.94182 221.531 3.26672 219.981 2.14967C218.446 1.04355 216.174 0.51 213.205 0.51V1.01ZM221.795 7.13C221.795 9.38594 221.144 11.06 219.876 12.1958L220.21 12.5682C221.612 11.312 222.295 9.48473 222.295 7.13H221.795ZM219.876 12.1957C218.621 13.3184 216.758 13.9 214.245 13.9V14.4C216.828 14.4 218.83 13.8029 220.21 12.5683L219.876 12.1957ZM214.245 13.9C213.87 13.9 213.39 13.8829 212.804 13.8484L212.774 14.3476C213.366 14.3824 213.857 14.4 214.245 14.4V13.9ZM212.789 13.848C212.679 13.848 212.55 13.8718 212.447 13.9631C212.339 14.0595 212.305 14.19 212.305 14.306H212.805C212.805 14.2941 212.807 14.2947 212.804 14.3028C212.8 14.3123 212.792 14.3254 212.78 14.3369C212.774 14.3421 212.768 14.3456 212.764 14.3478C212.76 14.35 212.757 14.3507 212.758 14.3507C212.758 14.3505 212.768 14.348 212.789 14.348V13.848ZM212.305 14.306V18.518H212.805V14.306H212.305ZM212.305 18.518C212.305 18.8471 212.186 19.1311 211.936 19.3812L212.29 19.7348C212.629 19.3956 212.805 18.9862 212.805 18.518H212.305ZM211.936 19.3812C211.686 19.6314 211.402 19.75 211.073 19.75V20.25C211.541 20.25 211.951 20.074 212.29 19.7348L211.936 19.3812ZM211.073 19.75H208.967V20.25H211.073V19.75ZM208.967 19.75C208.638 19.75 208.354 19.6314 208.104 19.3812L207.75 19.7348C208.089 20.074 208.499 20.25 208.967 20.25V19.75ZM208.104 19.3812C207.854 19.1311 207.735 18.8471 207.735 18.518H207.235C207.235 18.9862 207.411 19.3956 207.75 19.7348L208.104 19.3812ZM207.735 18.518V2.632H207.235V18.518H207.735ZM207.735 2.632C207.735 2.27713 207.851 1.96101 208.092 1.67503L207.71 1.35297C207.396 1.72566 207.235 2.15487 207.235 2.632H207.735ZM208.092 1.67503C208.328 1.39479 208.614 1.24609 208.962 1.21714L208.92 0.718862C208.436 0.759244 208.028 0.974546 207.71 1.35297L208.092 1.67503ZM208.964 1.2169C210.431 1.07891 211.844 1.01 213.205 1.01V0.51C211.827 0.51 210.398 0.579758 208.917 0.719099L208.964 1.2169ZM236.065 8.742L236.242 8.56522L236.242 8.56522L236.065 8.742ZM236.065 11.758L236.242 11.9348L236.242 11.9348L236.065 11.758ZM236.585 16.282L236.409 16.4588L236.409 16.4588L236.585 16.282ZM236.585 19.558L236.409 19.3812L236.409 19.3812L236.585 19.558ZM224.989 19.558L224.813 19.7348L224.813 19.7348L224.989 19.558ZM224.989 1.462L224.813 1.28522L224.813 1.28522L224.989 1.462ZM235.545 1.27C235.875 1.27 236.158 1.38863 236.409 1.63878L236.762 1.28522C236.423 0.946037 236.014 0.77 235.545 0.77V1.27ZM236.409 1.63878C236.659 1.88892 236.777 2.17291 236.777 2.502H237.277C237.277 2.03376 237.101 1.62441 236.762 1.28522L236.409 1.63878ZM236.777 2.502V3.698H237.277V2.502H236.777ZM236.777 3.698C236.777 4.02709 236.659 4.31107 236.409 4.56122L236.762 4.91478C237.101 4.57559 237.277 4.16624 237.277 3.698H236.777ZM236.409 4.56122C236.158 4.81137 235.875 4.93 235.545 4.93V5.43C236.014 5.43 236.423 5.25396 236.762 4.91478L236.409 4.56122ZM235.545 4.93H229.981V5.43H235.545V4.93ZM229.981 4.93C229.872 4.93 229.743 4.95375 229.64 5.04515C229.531 5.14153 229.497 5.272 229.497 5.388H229.997C229.997 5.37615 229.999 5.37671 229.996 5.38478C229.993 5.39432 229.985 5.40745 229.972 5.41885C229.966 5.42405 229.961 5.42759 229.956 5.42984C229.952 5.43203 229.95 5.43274 229.95 5.4327C229.951 5.43245 229.96 5.43 229.981 5.43V4.93ZM229.497 5.388V8.066H229.997V5.388H229.497ZM229.497 8.066C229.497 8.18254 229.527 8.31586 229.629 8.41828C229.732 8.5207 229.865 8.55 229.981 8.55V8.05C229.963 8.05 229.956 8.04755 229.958 8.0482C229.959 8.04861 229.963 8.04989 229.967 8.05272C229.972 8.0556 229.978 8.05958 229.983 8.06472C229.988 8.06987 229.992 8.07517 229.995 8.07997C229.998 8.08468 229.999 8.08808 229.999 8.08932C230 8.09128 229.997 8.08491 229.997 8.066H229.497ZM229.981 8.55H235.025V8.05H229.981V8.55ZM235.025 8.55C235.355 8.55 235.638 8.66863 235.889 8.91878L236.242 8.56522C235.903 8.22604 235.494 8.05 235.025 8.05V8.55ZM235.889 8.91878C236.139 9.16892 236.257 9.45291 236.257 9.782H236.757C236.757 9.31376 236.581 8.90441 236.242 8.56522L235.889 8.91878ZM236.257 9.782V10.718H236.757V9.782H236.257ZM236.257 10.718C236.257 11.0471 236.139 11.3311 235.889 11.5812L236.242 11.9348C236.581 11.5956 236.757 11.1862 236.757 10.718H236.257ZM235.889 11.5812C235.638 11.8314 235.355 11.95 235.025 11.95V12.45C235.494 12.45 235.903 12.274 236.242 11.9348L235.889 11.5812ZM235.025 11.95H229.981V12.45H235.025V11.95ZM229.981 11.95C229.872 11.95 229.743 11.9738 229.64 12.0651C229.531 12.1615 229.497 12.292 229.497 12.408H229.997C229.997 12.3961 229.999 12.3967 229.996 12.4048C229.993 12.4143 229.985 12.4274 229.972 12.4389C229.966 12.4441 229.961 12.4476 229.956 12.4498C229.952 12.452 229.95 12.4527 229.95 12.4527C229.951 12.4525 229.96 12.45 229.981 12.45V11.95ZM229.497 12.408V15.606H229.997V12.408H229.497ZM229.497 15.606C229.497 15.7225 229.527 15.8559 229.629 15.9583C229.732 16.0607 229.865 16.09 229.981 16.09V15.59C229.963 15.59 229.956 15.5875 229.958 15.5882C229.959 15.5886 229.963 15.5899 229.967 15.5927C229.972 15.5956 229.978 15.5996 229.983 15.6047C229.988 15.6099 229.992 15.6152 229.995 15.62C229.998 15.6247 229.999 15.6281 229.999 15.6293C230 15.6313 229.997 15.6249 229.997 15.606H229.497ZM229.981 16.09H235.545V15.59H229.981V16.09ZM235.545 16.09C235.875 16.09 236.158 16.2086 236.409 16.4588L236.762 16.1052C236.423 15.766 236.014 15.59 235.545 15.59V16.09ZM236.409 16.4588C236.659 16.7089 236.777 16.9929 236.777 17.322H237.277C237.277 16.8538 237.101 16.4444 236.762 16.1052L236.409 16.4588ZM236.777 17.322V18.518H237.277V17.322H236.777ZM236.777 18.518C236.777 18.8471 236.659 19.1311 236.409 19.3812L236.762 19.7348C237.101 19.3956 237.277 18.9862 237.277 18.518H236.777ZM236.409 19.3812C236.158 19.6314 235.875 19.75 235.545 19.75V20.25C236.014 20.25 236.423 20.074 236.762 19.7348L236.409 19.3812ZM235.545 19.75H226.029V20.25H235.545V19.75ZM226.029 19.75C225.7 19.75 225.416 19.6314 225.166 19.3812L224.813 19.7348C225.152 20.074 225.561 20.25 226.029 20.25V19.75ZM225.166 19.3812C224.916 19.1311 224.797 18.8471 224.797 18.518H224.297C224.297 18.9862 224.473 19.3956 224.813 19.7348L225.166 19.3812ZM224.797 18.518V2.502H224.297V18.518H224.797ZM224.797 2.502C224.797 2.17291 224.916 1.88892 225.166 1.63878L224.813 1.28522C224.473 1.62441 224.297 2.03376 224.297 2.502H224.797ZM225.166 1.63878C225.416 1.38863 225.7 1.27 226.029 1.27V0.77C225.561 0.77 225.152 0.946037 224.813 1.28522L225.166 1.63878ZM226.029 1.27H235.545V0.77H226.029V1.27ZM249.149 8.95L249.312 9.13935L249.313 9.13892L249.149 8.95ZM245.873 4.738L245.838 4.49051L245.828 4.49187L245.819 4.49395L245.873 4.738ZM253.777 14.8L254.012 14.7152L254.012 14.7138L253.777 14.8ZM255.155 18.622L255.391 18.5394L255.39 18.5372L255.155 18.622ZM255.025 19.584L255.225 19.7341L255.229 19.7282L255.025 19.584ZM250.579 19.61L250.724 19.4066L250.724 19.4066L250.579 19.61ZM249.851 18.596L250.091 18.526L250.089 18.519L249.851 18.596ZM248.707 15.06L248.468 15.135L248.469 15.137L248.707 15.06ZM247.979 13.76L247.813 13.9475L247.813 13.9475L247.979 13.76ZM245.197 19.558L245.374 19.7348L245.374 19.7348L245.197 19.558ZM241.011 19.558L240.834 19.7348L240.834 19.7348L241.011 19.558ZM240.959 1.54L240.768 1.37896L240.767 1.37995L240.959 1.54ZM241.999 0.994L242.02 1.24315L242.022 1.24295L241.999 0.994ZM254.115 9.652L253.912 9.50562L253.91 9.50813L254.115 9.652ZM251.515 11.654V11.904H251.56L251.602 11.8884L251.515 11.654ZM251.515 11.732L251.638 11.5145L251.581 11.482H251.515V11.732ZM252.789 12.85L252.587 12.9975L252.591 13.0024L252.789 12.85ZM247.069 9.85C247.993 9.85 248.751 9.6232 249.312 9.13935L248.986 8.76065C248.542 9.14346 247.913 9.35 247.069 9.35V9.85ZM249.313 9.13892C249.894 8.63528 250.179 7.95635 250.179 7.13H249.679C249.679 7.82898 249.444 8.36338 248.985 8.76108L249.313 9.13892ZM250.179 7.13C250.179 6.25779 249.925 5.56106 249.377 5.08829C248.837 4.62159 248.053 4.41 247.069 4.41V4.91C247.992 4.91 248.638 5.11008 249.05 5.4667C249.456 5.81728 249.679 6.35554 249.679 7.13H250.179ZM247.069 4.41C246.626 4.41 246.215 4.43658 245.838 4.49051L245.908 4.98549C246.259 4.93542 246.645 4.91 247.069 4.91V4.41ZM245.819 4.49395C245.702 4.5198 245.588 4.57471 245.504 4.67719C245.42 4.78033 245.389 4.904 245.389 5.024H245.889C245.889 5.0056 245.891 4.99593 245.892 4.99247C245.893 4.98966 245.893 4.99109 245.891 4.99381C245.885 5.00095 245.887 4.99087 245.927 4.98205L245.819 4.49395ZM245.389 5.024V9.366H245.889V5.024H245.389ZM245.389 9.366C245.389 9.48254 245.418 9.61586 245.521 9.71828C245.623 9.8207 245.756 9.85 245.873 9.85V9.35C245.854 9.35 245.848 9.34755 245.85 9.3482C245.851 9.34861 245.854 9.34989 245.859 9.35272C245.864 9.3556 245.869 9.35958 245.874 9.36472C245.879 9.36987 245.883 9.37517 245.886 9.37997C245.889 9.38468 245.89 9.38809 245.891 9.38932C245.891 9.39128 245.889 9.38491 245.889 9.366H245.389ZM245.873 9.85H247.069V9.35H245.873V9.85ZM253.542 14.8848L254.92 18.7068L255.39 18.5372L254.012 14.7152L253.542 14.8848ZM254.919 18.7046C255.014 18.9766 254.981 19.2126 254.821 19.4398L255.229 19.7282C255.485 19.3661 255.538 18.9607 255.391 18.5394L254.919 18.7046ZM254.825 19.434C254.667 19.6448 254.457 19.75 254.167 19.75V20.25C254.605 20.25 254.967 20.0779 255.225 19.734L254.825 19.434ZM254.167 19.75H251.801V20.25H254.167V19.75ZM251.801 19.75C251.402 19.75 251.045 19.636 250.724 19.4066L250.434 19.8134C250.84 20.104 251.299 20.25 251.801 20.25V19.75ZM250.724 19.4066C250.404 19.178 250.196 18.8863 250.091 18.526L249.611 18.666C249.748 19.1377 250.026 19.522 250.434 19.8134L250.724 19.4066ZM250.089 18.519L248.945 14.983L248.469 15.137L249.613 18.673L250.089 18.519ZM248.945 14.985C248.749 14.3591 248.488 13.8759 248.144 13.5725L247.813 13.9475C248.059 14.1641 248.284 14.5475 248.468 15.135L248.945 14.985ZM248.144 13.5725C247.794 13.2634 247.34 13.12 246.809 13.12V13.62C247.248 13.62 247.575 13.7366 247.813 13.9475L248.144 13.5725ZM246.809 13.12H245.873V13.62H246.809V13.12ZM245.873 13.12C245.756 13.12 245.623 13.1493 245.521 13.2517C245.418 13.3541 245.389 13.4875 245.389 13.604H245.889C245.889 13.5851 245.891 13.5787 245.891 13.5807C245.89 13.5819 245.889 13.5853 245.886 13.59C245.883 13.5948 245.879 13.6001 245.874 13.6053C245.869 13.6104 245.864 13.6144 245.859 13.6173C245.854 13.6201 245.851 13.6214 245.85 13.6218C245.848 13.6225 245.854 13.62 245.873 13.62V13.12ZM245.389 13.604V18.518H245.889V13.604H245.389ZM245.389 18.518C245.389 18.8471 245.27 19.1311 245.02 19.3812L245.374 19.7348C245.713 19.3956 245.889 18.9862 245.889 18.518H245.389ZM245.02 19.3812C244.77 19.6314 244.486 19.75 244.157 19.75V20.25C244.625 20.25 245.034 20.074 245.374 19.7348L245.02 19.3812ZM244.157 19.75H242.051V20.25H244.157V19.75ZM242.051 19.75C241.722 19.75 241.438 19.6314 241.188 19.3812L240.834 19.7348C241.173 20.074 241.583 20.25 242.051 20.25V19.75ZM241.188 19.3812C240.938 19.1311 240.819 18.8471 240.819 18.518H240.319C240.319 18.9862 240.495 19.3956 240.834 19.7348L241.188 19.3812ZM240.819 18.518V2.632H240.319V18.518H240.819ZM240.819 2.632C240.819 2.27293 240.929 1.96594 241.151 1.70005L240.767 1.37995C240.468 1.73806 240.319 2.15906 240.319 2.632H240.819ZM241.15 1.70103C241.386 1.42079 241.672 1.27209 242.02 1.24314L241.978 0.744863C241.494 0.785244 241.086 1.00055 240.768 1.37897L241.15 1.70103ZM242.022 1.24295C243.712 1.08771 245.481 1.01 247.329 1.01V0.51C245.467 0.51 243.683 0.588292 241.976 0.745047L242.022 1.24295ZM247.329 1.01C249.905 1.01 251.791 1.49426 253.029 2.4225C254.253 3.34059 254.879 4.721 254.879 6.61H255.379C255.379 4.599 254.705 3.05441 253.329 2.0225C251.967 1.00074 249.953 0.51 247.329 0.51V1.01ZM254.879 6.61C254.879 7.64633 254.559 8.60964 253.912 9.50563L254.318 9.79837C255.022 8.82236 255.379 7.75766 255.379 6.61H254.879ZM253.91 9.50813C253.281 10.4027 252.455 11.0385 251.428 11.4196L251.602 11.8884C252.724 11.4722 253.632 10.7733 254.319 9.79587L253.91 9.50813ZM251.515 11.404C251.468 11.404 251.386 11.416 251.319 11.4837C251.251 11.5515 251.239 11.6328 251.239 11.68H251.739C251.739 11.7099 251.731 11.7782 251.672 11.8373C251.613 11.8964 251.545 11.904 251.515 11.904V11.404ZM251.239 11.68C251.239 11.7101 251.241 11.7699 251.272 11.8308C251.289 11.8648 251.318 11.9053 251.365 11.9368C251.414 11.9693 251.467 11.982 251.515 11.982V11.482C251.554 11.482 251.6 11.4926 251.642 11.5207C251.683 11.5479 251.706 11.5819 251.719 11.6072C251.731 11.6315 251.735 11.6518 251.737 11.6617C251.739 11.6722 251.739 11.6789 251.739 11.68H251.239ZM251.392 11.9495C251.883 12.2279 252.28 12.5775 252.587 12.9975L252.991 12.7025C252.639 12.2212 252.187 11.8254 251.638 11.5145L251.392 11.9495ZM252.591 13.0024C252.916 13.4247 253.234 14.0484 253.542 14.8862L254.012 14.7138C253.695 13.853 253.356 13.1766 252.987 12.6976L252.591 13.0024Z" fill="black" fill-opacity="0.5"/>
</svg>
