<svg xmlns="http://www.w3.org/2000/svg" xmlns:xlink="http://www.w3.org/1999/xlink" width="35.86" height="35.864" viewBox="0 0 35.86 35.864">
  <defs>
    <clipPath id="clip-path">
      <rect id="Rectangle_46" data-name="Rectangle 46" width="35.86" height="35.864" fill="none"/>
    </clipPath>
  </defs>
  <g id="Group_53" data-name="Group 53" clip-path="url(#clip-path)">
    <path id="Path_35" data-name="Path 35" d="M7.088,22.855a4.051,4.051,0,0,1-1.175,2.688c-.153.175-.188.3,0,.453a1.842,1.842,0,0,1,.141.155c1.287,1.275,1.147,2.748.381,4.209A1.684,1.684,0,0,1,4.773,31.37a1.758,1.758,0,0,1-1.59-1.192A3.848,3.848,0,0,1,3.66,26a.332.332,0,0,0,.013-.5A4.37,4.37,0,0,1,2.8,22.754c.02-.956,0-1.914.009-2.87a.472.472,0,0,0-.217-.435c-.724-.531-1.436-1.08-2.16-1.61A.968.968,0,0,1,0,16.981q.017-2.975,0-5.951A.938.938,0,0,1,.415,10.2c.717-.522,1.417-1.066,2.133-1.588a.509.509,0,0,0,.261-.519,2.021,2.021,0,0,1,0-.419.7.7,0,0,1,.652-.66c.116-.011.233-.005.349-.005,3.023,0,6.046-.047,9.067.015a22.815,22.815,0,0,0,6.9-.922A97.8,97.8,0,0,0,31.524,1.715a.461.461,0,0,0,.257-.3,2.1,2.1,0,0,1,4.076.751q.006,11.85,0,23.7a2.095,2.095,0,0,1-4.076.733.507.507,0,0,0-.3-.309A95.859,95.859,0,0,0,19.368,21.8c-.328-.092-.466-.043-.619.28A11.882,11.882,0,0,1,14.6,26.814a.459.459,0,0,0-.246.584,32.383,32.383,0,0,1,.869,5.168,2.934,2.934,0,1,1-5.837.589,45.766,45.766,0,0,0-1.817-9c-.146-.439-.32-.869-.482-1.3m24.57-8.844q0-5.233.005-10.465c0-.3-.052-.346-.338-.22-2.208.969-4.44,1.881-6.716,2.68A39.152,39.152,0,0,1,15.64,8.356c-.211.021-.231.127-.231.3q.006,5.354,0,10.71c0,.207.054.288.265.305a25.774,25.774,0,0,1,5.154,1.1,94,94,0,0,1,10.468,3.908c.362.155.362.155.362-.235q0-5.216,0-10.431M14.01,14.02c0-1.761-.005-3.522.006-5.284,0-.252-.05-.336-.322-.333q-3.185.017-6.369,0c-.27,0-.323.078-.323.332Q7.016,14.019,7,19.3c0,.237.049.318.3.317q3.2-.017,6.4,0c.251,0,.307-.076.305-.315-.01-1.761-.006-3.522-.006-5.284m-6.3,6.994A20.056,20.056,0,0,1,9.531,25.9a57.017,57.017,0,0,1,1.259,7.152,1.53,1.53,0,1,0,3.048-.279,33.567,33.567,0,0,0-.879-5.2,35.88,35.88,0,0,0-2.2-6.288c-.059-.127-.081-.285-.3-.281-.9.01-1.794,0-2.753,0m25.345-7.021V25.617c0,.662.241,1,.708,1s.691-.338.691-.978q0-11.623,0-23.248A2.427,2.427,0,0,0,34.446,2a.7.7,0,0,0-1.378.018,2.99,2.99,0,0,0-.009.384V13.994m-27.451.015q0-2.256,0-4.513c0-.348.117-.814-.059-1.012-.2-.228-.68-.042-1.036-.078-.247-.025-.312.063-.309.308.011,1.446.006,2.892.006,4.337,0,2.077.005,4.152-.008,6.227,0,.285.085.362.351.338a4.078,4.078,0,0,1,.734,0c.264.025.329-.066.328-.327-.013-1.761-.006-3.521-.006-5.282M2.781,17.84V10.184c-.439.328-.834.632-1.238.924a.351.351,0,0,0-.138.332q0,2.57,0,5.139a.346.346,0,0,0,.131.334c.4.293.8.6,1.243.929m14.752,3.546a9.035,9.035,0,0,0-1.255-.241A.242.242,0,0,0,16,21.3a9.2,9.2,0,0,1-2.411,2.783c-.086.067-.159.125-.112.259.139.406.267.816.413,1.263a10.752,10.752,0,0,0,3.641-4.218M4.8,24.672a2.4,2.4,0,0,0,.809-1.937c-.02-.208.006-.42-.005-.63-.018-.356.159-.844-.073-1.032s-.69-.043-1.05-.063c-.206-.011-.286.04-.28.266.016.583,0,1.166.009,1.749a2.875,2.875,0,0,0,.59,1.646m.8,3.7a2.1,2.1,0,0,0-.732-1.45c-.134-.1-.159.016-.211.077a2.668,2.668,0,0,0-.132,2.734c.212.313.439.323.655.014a2.793,2.793,0,0,0,.42-1.375m8.913-7.322h-2.3c.22.539.426,1.043.635,1.549.043.107.071.237.231.095a7.85,7.85,0,0,0,1.437-1.644" transform="translate(0 0)" fill="#fff"/>
    <path id="Path_36" data-name="Path 36" d="M14.458,13.536a35.2,35.2,0,0,1,4.384.85,50.257,50.257,0,0,1,7.32,2.523c.493.211.675.585.491.992-.17.376-.566.487-1.045.294-.053-.021-.107-.045-.16-.068a49.818,49.818,0,0,0-6.589-2.289,34.152,34.152,0,0,0-4.412-.891.853.853,0,0,1-.642-.305.658.658,0,0,1-.053-.756.674.674,0,0,1,.707-.351" transform="translate(3.573 3.54)" fill="#fff"/>
    <path id="Path_37" data-name="Path 37" d="M25.411,4.93a.691.691,0,0,1,.691.513.678.678,0,0,1-.418.826q-.994.431-2,.821a46.465,46.465,0,0,1-6.808,2.078c-.482.1-.844-.076-.941-.472a.7.7,0,0,1,.614-.883,48.61,48.61,0,0,0,8.42-2.757,2.863,2.863,0,0,1,.3-.108.746.746,0,0,1,.15-.019" transform="translate(4.161 1.29)" fill="#fff"/>
    <path id="Path_38" data-name="Path 38" d="M14.4,7.6a.7.7,0,0,1,.709.7A.722.722,0,0,1,14.418,9a.707.707,0,0,1-.7-.71A.687.687,0,0,1,14.4,7.6" transform="translate(3.588 1.989)" fill="#fff"/>
    <path id="Path_39" data-name="Path 39" d="M8.781,7.776c.443,0,.884-.006,1.327,0a.7.7,0,1,1,0,1.4q-1.344.009-2.688,0a.7.7,0,1,1,0-1.4c.453-.008.907,0,1.361,0" transform="translate(1.744 2.034)" fill="#fff"/>
    <path id="Path_40" data-name="Path 40" d="M8.8,10c.43,0,.862-.005,1.292,0a.7.7,0,1,1,0,1.4q-1.327.009-2.653,0a.7.7,0,1,1,0-1.4c.453-.006.907,0,1.361,0" transform="translate(1.744 2.614)" fill="#fff"/>
    <path id="Path_41" data-name="Path 41" d="M8.745,13.617c-.443,0-.884.006-1.327,0a.7.7,0,1,1,.008-1.4q1.344-.009,2.688,0a.7.7,0,1,1-.008,1.4c-.453.008-.907,0-1.361,0" transform="translate(1.744 3.195)" fill="#fff"/>
  </g>
</svg>
