<?xml version="1.0" encoding="utf-8"?>
<!-- Generator: Adobe Illustrator 27.7.0, SVG Export Plug-In . SVG Version: 6.00 Build 0)  -->
<svg version="1.1" id="Ebene_1" xmlns="http://www.w3.org/2000/svg" xmlns:xlink="http://www.w3.org/1999/xlink" x="0px" y="0px"
	 viewBox="0 0 35 35" style="enable-background:new 0 0 35 35;" xml:space="preserve">
<style type="text/css">
	.st0{fill:#FFFFFF;}
</style>
<path id="ic_supervisor_account_24px" class="st0" d="M23.2,19.2c1.4,0,2.5-1.1,2.5-2.5c0-1.4-1.1-2.5-2.5-2.5
	c-1.4,0-2.5,1.1-2.5,2.5C20.7,18,21.8,19.2,23.2,19.2C23.2,19.2,23.2,19.2,23.2,19.2z M15.7,18.2c1.7,0,3-1.3,3-3c0-1.7-1.3-3-3-3
	s-3,1.3-3,3C12.7,16.8,14,18.2,15.7,18.2C15.6,18.2,15.7,18.2,15.7,18.2z M23.2,21.2c-1.8,0-5.5,0.9-5.5,2.8v2.2h11v-2.2
	C28.7,22.1,25,21.2,23.2,21.2z M15.7,20.2c-2.3,0-7,1.2-7,3.5v2.5h7v-2.2c0.1-1.5,1-2.9,2.4-3.5C17.3,20.3,16.5,20.2,15.7,20.2z"/>
</svg>
