<svg xmlns="http://www.w3.org/2000/svg" xmlns:xlink="http://www.w3.org/1999/xlink" width="42.614" height="42.562" viewBox="0 0 42.614 42.562">
  <defs>
    <clipPath id="clip-path">
      <rect id="Rectangle_44" data-name="Rectangle 44" width="42.614" height="42.562" fill="#fff"/>
    </clipPath>
  </defs>
  <g id="Group_39" data-name="Group 39" clip-path="url(#clip-path)">
    <path id="Path_27" data-name="Path 27" d="M18.188,14.591c1.191,0,2.384-.026,3.575.011a1.549,1.549,0,0,0,1.344-.618q3.041-3.591,6.127-7.142A19.6,19.6,0,0,1,43,.065C44.271-.04,45.557.041,46.834,0c.709-.022,1.011.319,1.042.98.325,6.871-1.445,12.944-6.782,17.63-2.357,2.069-4.748,4.1-7.142,6.128a1.666,1.666,0,0,0-.653,1.423c.039,2.354.022,4.708.05,7.062a1.9,1.9,0,0,1-.574,1.484c-1.8,1.774-3.576,3.573-5.373,5.35-.745.736-1.153.635-1.455-.348q-.819-2.662-1.6-5.335c-.3-1.008-.35-1.036-1.115-.39-1,.844-1.055.844-1.988-.085-.659-.656-1.331-1.3-1.963-1.982a.651.651,0,0,0-1.03-.1,29.85,29.85,0,0,1-3.225,2.064c-.346.195-.691.382-1.039.083-.412-.355-.178-.761.031-1.1.635-1.04,1.264-2.088,1.967-3.081.357-.5.37-.833-.089-1.257-.726-.669-1.384-1.412-2.11-2.081a.933.933,0,0,1-.063-1.555c.143-.143.262-.311.4-.462.374-.415.26-.625-.259-.776-1.755-.51-3.5-1.051-5.25-1.58-.167-.05-.336-.093-.5-.155-.849-.324-.962-.751-.323-1.406,1.259-1.29,2.655-2.463,3.785-3.854a5.1,5.1,0,0,1,5.134-2.089,9.292,9.292,0,0,0,1.48.012Zm-1,13.307c.209.017.3-.137.415-.271.338-.4.673-.8,1.022-1.191a37.125,37.125,0,0,1,9.23-7.481c.361-.208.76-.56,1.183-.152.453.438.1.852-.121,1.253-.056.1-.114.2-.173.3a36.78,36.78,0,0,1-8.238,9.721c-.528.439-.627.746-.069,1.213A8.293,8.293,0,0,1,21.6,32.471c.475.6.836.528,1.393.047,5.841-5.056,11.718-10.07,17.56-15.125a17.484,17.484,0,0,0,4.267-5.776.814.814,0,0,0-.124-1.085q-3.656-3.616-7.279-7.264a.887.887,0,0,0-1.164-.2,18.191,18.191,0,0,0-5.882,4.41q-6.936,8.056-13.854,16.128c-1.833,2.135-1.833,2.135.256,4.01.127.114.221.277.42.279m14.862,2.693c0-1.377,0-2.365,0-3.354,0-.167.046-.368-.137-.474-.24-.138-.373.074-.518.2q-2.942,2.526-5.882,5.055a.764.764,0,0,0-.267.916c.51,1.665.985,3.341,1.482,5.01.152.51.371.674.815.193a20.233,20.233,0,0,1,2.161-2.15c1.885-1.5,3.028-3.262,2.349-5.4M17.677,15.87v-.022c-.93,0-1.859.006-2.789,0a1.3,1.3,0,0,0-1.02.381Q11.821,18.3,9.744,20.351c-.437.431-.375.628.221.8,1.644.47,3.279.975,4.91,1.492a.884.884,0,0,0,1.065-.315c1.655-1.946,3.326-3.879,4.985-5.821.108-.126.258-.312.231-.436-.054-.244-.321-.2-.517-.2-.988-.005-1.975,0-2.963,0M44.34,1.276a21,21,0,0,0-5.234.752c-.432.112-.928.228-.328.82q3.156,3.113,6.279,6.261c.478.48.616.269.774-.263a20.745,20.745,0,0,0,.785-5.229c.094-2.768.359-2.325-2.277-2.341M26.29,21.6a31.012,31.012,0,0,0-9.57,9.585A30.984,30.984,0,0,0,26.29,21.6" transform="translate(-5.3 0)" fill="#fff"/>
    <path id="Path_28" data-name="Path 28" d="M.518,110.6c-.4-.114-.657-.368-.44-.866a1.692,1.692,0,0,1,.379-.471q2.948-2.954,5.9-5.9c.1-.1.214-.194.324-.287a.553.553,0,0,1,.846.034.581.581,0,0,1-.009.859c-.511.554-1.046,1.086-1.579,1.62Q3.7,107.839,1.45,110.08c-.242.241-.459.54-.932.523" transform="translate(0 -73.894)" fill="#fff"/>
    <path id="Path_29" data-name="Path 29" d="M21.4,131.493a.541.541,0,0,1-.416-.846,2.559,2.559,0,0,1,.543-.671q2.759-2.774,5.53-5.535a4.289,4.289,0,0,1,.525-.453.573.573,0,0,1,.793.02.608.608,0,0,1,.041.863,2.937,2.937,0,0,1-.348.388q-2.885,2.889-5.773,5.775a1.087,1.087,0,0,1-.894.46" transform="translate(-15.004 -88.932)" fill="#fff"/>
    <path id="Path_30" data-name="Path 30" d="M8.7,126.631a1.07,1.07,0,0,1-.437.724q-2.3,2.309-4.608,4.608c-.34.338-.726.687-1.184.226s-.045-.795.256-1.1q2.354-2.376,4.727-4.733c.242-.24.507-.509.91-.288a.579.579,0,0,1,.335.561" transform="translate(-1.63 -90.476)" fill="#fff"/>
    <path id="Path_31" data-name="Path 31" d="M100.125,36.125a3.584,3.584,0,0,1-3.672-3.6,3.634,3.634,0,0,1,3.578-3.626,3.6,3.6,0,0,1,3.658,3.619,3.542,3.542,0,0,1-3.564,3.6m-.041-5.939a2.339,2.339,0,0,0-.054,4.678,2.339,2.339,0,1,0,.054-4.678" transform="translate(-69.266 -20.755)" fill="#fff"/>
  </g>
</svg>
