<svg xmlns="http://www.w3.org/2000/svg" width="16" height="20" viewBox="0 0 16 20">
  <g id="Schloss" transform="translate(-246.9 -38.648)">
    <path id="Path_9" data-name="Path 9" d="M262.78,45.359c-.031.3-.062.595-.1.892-.023.208-.05.417-.078.625-.043.293-.085.591-.136.884s-.1.587-.174.876c-.1.425-.2.853-.326,1.27-.167.537-.361,1.065-.554,1.594-.1.29-.229.571-.357.849s-.264.533-.407.8-.3.552-.473.811c-.24.363-.5.714-.76,1.065a10.052,10.052,0,0,1-1.2,1.336,11.564,11.564,0,0,1-1.958,1.533c-.419.255-.849.49-1.276.733a.134.134,0,0,1-.159,0c-.151-.089-.314-.158-.465-.243-.209-.12-.419-.243-.62-.371s-.407-.247-.6-.39c-.291-.208-.57-.432-.849-.656a12.019,12.019,0,0,1-1.609-1.59c-.248-.29-.473-.6-.694-.915-.194-.27-.372-.552-.547-.834-.132-.212-.252-.432-.364-.656-.194-.386-.384-.768-.558-1.162-.147-.34-.271-.687-.392-1.035q-.2-.585-.372-1.181c-.085-.3-.151-.61-.221-.915-.089-.413-.182-.826-.256-1.239-.07-.4-.112-.8-.163-1.2-.043-.332-.085-.66-.112-.992-.031-.386-.05-.776-.062-1.166-.019-.745-.027-1.494-.039-2.239,0-.135,0-.27,0-.405v-.818h.446c.368,0,.737.012,1.1,0,.326-.012.651-.042.973-.077.252-.023.508-.05.756-.1.43-.077.857-.162,1.279-.263a10.492,10.492,0,0,0,2.442-.923c.322-.17.628-.382.934-.579a.1.1,0,0,1,.128,0c.314.2.62.409.946.591a7.386,7.386,0,0,0,.752.347c.252.108.5.208.76.3a11.921,11.921,0,0,0,1.59.429c.384.073.775.124,1.163.178.194.027.388.039.578.058.031,0,.066,0,.1,0s.089.008.132.008l.217.012.349.012c.019,0,.039,0,.058,0h1.245c0,.008.012.015.012.019.008.3.016.61.023.911.008.405.016.807.016,1.212,0,.27-.008.537-.016.807-.012.29-.027.579-.039.872,0,.108-.012.216-.019.324,0,.027,0,.054,0,.081,0,.042-.008.089-.008.131s-.008.1-.015.158c0,.039,0,.073-.008.112A.42.42,0,0,1,262.78,45.359Zm-11.2,6.37a.3.3,0,0,0,.337.224q2.995,0,5.99,0a.338.338,0,0,0,.357-.367c0-1.444,0-2.888,0-4.331a.345.345,0,0,0-.376-.378q-2.977.006-5.951,0a.334.334,0,0,0-.376.371c.008,1.448,0,2.9,0,4.343,0,.039.008.077.012.116a.013.013,0,0,1,0,.008S251.572,51.725,251.576,51.729Zm3.354-8.613a6.981,6.981,0,0,0-.806.108A3.213,3.213,0,0,0,252.029,45a4.622,4.622,0,0,0-.24.788,2.7,2.7,0,0,0-.043.533.359.359,0,1,0,.717-.046,2.253,2.253,0,0,1,.136-.784,2.355,2.355,0,0,1,.481-.818,2.384,2.384,0,0,1,2.047-.815,2.446,2.446,0,0,1,.865.251,2.371,2.371,0,0,1,.9.761,2.062,2.062,0,0,1,.353.745c.05.239.078.483.109.722a.363.363,0,0,0,.376.32.337.337,0,0,0,.326-.355,2.554,2.554,0,0,0-.023-.421,4.373,4.373,0,0,0-.178-.714,3.033,3.033,0,0,0-.539-.915,3.193,3.193,0,0,0-1.438-.961A3.079,3.079,0,0,0,254.929,43.116Z" transform="translate(0)" fill="#fff"/>
    <path id="Path_10" data-name="Path 10" d="M610.563,88.909,610.4,88.9A1.575,1.575,0,0,1,610.563,88.909Z" transform="translate(-348.935 -48.787)" fill="#fff"/>
    <path id="Path_11" data-name="Path 11" d="M657.2,202.62c0-.041.006-.079.012-.12C657.209,202.541,657.206,202.579,657.2,202.62Z" transform="translate(-394.37 -157.515)" fill="#fff"/>
    <path id="Path_12" data-name="Path 12" d="M656.5,209.587c.006-.029.009-.058.015-.087C656.512,209.529,656.506,209.558,656.5,209.587Z" transform="translate(-393.69 -164.247)" fill="#fff"/>
    <path id="Path_13" data-name="Path 13" d="M604.573,88.5l-.073,0Z" transform="translate(-343.207 -48.398)" fill="#fff"/>
    <path id="Path_14" data-name="Path 14" d="M657.8,197.061c0-.02,0-.041,0-.061A.429.429,0,0,1,657.8,197.061Z" transform="translate(-394.953 -152.233)" fill="#fff"/>
    <path id="Path_15" data-name="Path 15" d="M625.044,89.4l-.044,0A.221.221,0,0,0,625.044,89.4Z" transform="translate(-363.109 -49.272)" fill="#fff"/>
    <path id="Path_16" data-name="Path 16" d="M367.206,377c0,.006,0,.009,0,.015l-.009-.009S367.2,377,367.206,377Z" transform="translate(-115.635 -325.287)" fill="#fff"/>
    <path id="Path_17" data-name="Path 17" d="M435.52,281.445c0-.155,0-.312,0-.467a.138.138,0,0,0-.035-.079.519.519,0,0,1,.207-.9.525.525,0,0,1,.618.318.56.56,0,0,1-.131.566.155.155,0,0,0-.044.1c0,.286,0,.575,0,.86a.337.337,0,0,1-.265.341.327.327,0,0,1-.344-.26c.006-.16,0-.321,0-.481Z" transform="translate(-180.921 -231.63)" fill="#fff"/>
  </g>
</svg>
