<svg xmlns="http://www.w3.org/2000/svg" xmlns:xlink="http://www.w3.org/1999/xlink" width="25" height="25" viewBox="0 0 25 25">
  <defs>
    <clipPath id="clip-path">
      <rect id="Rectangle_19" data-name="Rectangle 19" width="25" height="25" fill="#fff"/>
    </clipPath>
  </defs>
  <g id="Group_12" data-name="Group 12" clip-path="url(#clip-path)">
    <g id="Group_69" data-name="Group 69">
      <path id="Path_6" data-name="Path 6" d="M6.838,78.443c1.814,0,3.629,0,5.443.005.2,0,.283-.033.277-.329-.011-.626.3-.994.795-1q2.4-.005,4.809,0c.531,0,.825.355.821,1.028,0,.266.079.3.254.295q2.2-.01,4.394,0a1.33,1.33,0,0,1,1.31,1.134,1.547,1.547,0,0,1-1.3,2.067c-1.334.01-2.669,0-4,0h-.122c-.154,0-.33-.053-.458.022-.157.093-.052.349-.085.53-.082.446-.341.76-.7.762q-2.5.012-5,0c-.424,0-.722-.4-.711-.973.006-.3-.078-.347-.288-.347q-5.419.011-10.838.007A1.251,1.251,0,0,1,.2,80.891,1.867,1.867,0,0,1,.17,79.269a1.233,1.233,0,0,1,1.2-.826q2.148,0,4.3,0H6.838" transform="translate(0 -67.546)" fill="#fff"/>
      <path id="Path_7" data-name="Path 7" d="M18.767,158.716c-1.676,0-3.352,0-5.028-.006-.2,0-.26.055-.259.319,0,.639-.289,1.007-.787,1.009q-2.428.01-4.857,0c-.5,0-.79-.373-.781-1.011,0-.267-.062-.318-.259-.317-1.79.01-3.58.008-5.369,0a1.34,1.34,0,0,1-1.32-1.232,1.57,1.57,0,0,1,1.083-1.938,3.3,3.3,0,0,1,.39-.021c1.733,0,3.466,0,5.2,0,.2,0,.285-.032.278-.33-.013-.626.294-1.005.788-1.007q2.416-.007,4.832,0c.5,0,.808.37.8.995,0,.314.1.342.3.341q4.906-.009,9.811,0a1.363,1.363,0,0,1,.762.159,1.743,1.743,0,0,1,.7,1.691A1.437,1.437,0,0,1,23.94,158.7a2.175,2.175,0,0,1-.317.014H18.767" transform="translate(-0.065 -135.043)" fill="#fff"/>
      <path id="Path_8" data-name="Path 8" d="M17.134,4.519c-2.188,0-4.377,0-6.565-.006-.217,0-.313.033-.307.358.01.6-.308.978-.787.979q-2.428.007-4.857,0c-.478,0-.788-.383-.779-.99,0-.305-.083-.351-.291-.347-.708.014-1.415.011-2.123,0A1.291,1.291,0,0,1,.15,3.461,1.567,1.567,0,0,1,1.34,1.33c.748-.018,1.5-.01,2.245,0,.174,0,.255-.026.252-.293C3.831.362,4.121,0,4.653,0Q7.057,0,9.461,0c.516,0,.811.366.8,1.018,0,.28.078.309.265.309q6.577-.009,13.155,0A1.34,1.34,0,0,1,25.027,2.56,1.571,1.571,0,0,1,23.942,4.5a3.3,3.3,0,0,1-.39.021H17.134" transform="translate(-0.066 0.001)" fill="#fff"/>
    </g>
  </g>
</svg>
