<svg xmlns="http://www.w3.org/2000/svg" width="10" height="15" viewBox="0 0 10 15">
  <path id="ic_content_paste_24px" d="M11.889,1.364H9.567A1.736,1.736,0,0,0,8,0,1.736,1.736,0,0,0,6.433,1.364H4.111A1.261,1.261,0,0,0,3,2.727V13.636A1.261,1.261,0,0,0,4.111,15h7.778A1.261,1.261,0,0,0,13,13.636V2.727A1.261,1.261,0,0,0,11.889,1.364ZM8,1.364a.63.63,0,0,1,.556.682A.63.63,0,0,1,8,2.727a.63.63,0,0,1-.556-.682A.63.63,0,0,1,8,1.364Zm3.889,12.273H4.111V2.727H5.222V4.773h5.556V2.727h1.111Z" transform="translate(-3)" fill="#065d4d"/>
</svg>
