<svg xmlns="http://www.w3.org/2000/svg" width="12" height="18" viewBox="0 0 12 18">
  <path id="ic_content_paste_24px" d="M13.667,1.636H10.88A2.083,2.083,0,0,0,9,0,2.083,2.083,0,0,0,7.12,1.636H4.333A1.513,1.513,0,0,0,3,3.273V16.364A1.513,1.513,0,0,0,4.333,18h9.333A1.513,1.513,0,0,0,15,16.364V3.273A1.513,1.513,0,0,0,13.667,1.636ZM9,1.636a.756.756,0,0,1,.667.818A.756.756,0,0,1,9,3.273a.756.756,0,0,1-.667-.818A.756.756,0,0,1,9,1.636Zm4.667,14.727H4.333V3.273H5.667V5.727h6.667V3.273h1.333Z" transform="translate(-3)"/>
</svg>
